<svg width="372" height="169" viewBox="0 0 372 169" fill="none" xmlns="http://www.w3.org/2000/svg">
<path d="M355.43 86.7466H272.855C264.371 86.7466 257.494 93.6239 257.494 102.107V102.418C257.494 110.901 264.371 117.778 272.855 117.778H355.43C363.913 117.778 370.791 110.901 370.791 102.418V102.107C370.791 93.6239 363.913 86.7466 355.43 86.7466Z" fill="#91E4FF"/>
<path d="M272.856 86.739C270.451 86.7416 268.08 87.3117 265.936 88.4029L261.194 97.1913C259.783 99.2227 258.974 101.611 258.861 104.082C258.747 106.552 259.333 109.005 260.551 111.157C261.77 113.309 263.571 115.074 265.748 116.248C267.924 117.422 270.388 117.958 272.856 117.793H282.892C285.25 116.387 287.184 114.369 288.489 111.955L302.103 86.7617L272.856 86.739Z" fill="#54C5E8"/>
<path d="M354.243 86.7466H323.211V117.778H354.243V86.7466Z" fill="#54C5E8"/>
<path d="M355.43 118.149H272.855C268.682 118.145 264.681 116.486 261.73 113.535C258.78 110.584 257.12 106.583 257.116 102.41V102.1C257.122 97.9277 258.782 93.9279 261.733 90.9776C264.683 88.0272 268.683 86.3671 272.855 86.3611H355.43C359.602 86.3671 363.602 88.0272 366.553 90.9776C369.503 93.9279 371.163 97.9277 371.169 102.1V102.41C371.165 106.583 369.506 110.584 366.555 113.535C363.604 116.486 359.603 118.145 355.43 118.149ZM272.855 87.1401C268.883 87.1461 265.076 88.7265 262.268 91.535C259.459 94.3435 257.879 98.151 257.873 102.123V102.433C257.877 106.405 259.456 110.214 262.265 113.023C265.074 115.832 268.883 117.412 272.855 117.416H355.43C359.403 117.412 363.211 115.832 366.02 113.023C368.829 110.214 370.409 106.405 370.413 102.433V102.123C370.407 98.151 368.826 94.3435 366.018 91.535C363.209 88.7265 359.402 87.1461 355.43 87.1401H272.855Z" fill="#627F92"/>
<path d="M302.616 13.5153L258.176 95.6715C254.139 103.133 256.916 112.454 264.378 116.491L264.651 116.638C272.113 120.675 281.434 117.898 285.47 110.436L329.91 28.2796C333.946 20.8177 331.17 11.4967 323.708 7.46037L323.435 7.31284C315.973 3.27655 306.652 6.0535 302.616 13.5153Z" fill="#C2F0FF"/>
<path d="M271.941 118.852C269.331 118.848 266.764 118.196 264.468 116.954L264.196 116.81C262.377 115.827 260.77 114.496 259.466 112.892C258.161 111.287 257.186 109.442 256.595 107.46C256.005 105.479 255.81 103.401 256.023 101.344C256.236 99.2876 256.852 97.2931 257.835 95.4746L302.269 13.3157C303.252 11.4977 304.583 9.89112 306.187 8.58784C307.791 7.28455 309.636 6.31008 311.617 5.72009C313.598 5.1301 315.675 4.93616 317.731 5.14936C319.786 5.36257 321.78 5.97872 323.597 6.96263L323.87 7.10633C325.688 8.0885 327.296 9.41944 328.6 11.0231C329.904 12.6267 330.879 14.4716 331.47 16.4524C332.06 18.4331 332.255 20.5108 332.042 22.5668C331.83 24.6227 331.214 26.6166 330.23 28.4345L285.797 110.601C284.447 113.099 282.446 115.185 280.006 116.637C277.567 118.09 274.78 118.855 271.941 118.852ZM316.125 5.82059C313.422 5.818 310.768 6.54713 308.446 7.93063C306.124 9.31412 304.219 11.3004 302.935 13.6787L258.501 95.8377C257.565 97.5683 256.979 99.4664 256.776 101.424C256.574 103.381 256.758 105.359 257.32 107.244C257.882 109.13 258.81 110.887 260.051 112.414C261.291 113.941 262.821 115.209 264.552 116.145L264.824 116.289C266.554 117.226 268.452 117.813 270.41 118.016C272.367 118.219 274.345 118.034 276.231 117.472C278.117 116.91 279.874 115.982 281.401 114.741C282.928 113.5 284.196 111.969 285.131 110.238L329.565 28.0791C330.501 26.3484 331.087 24.4503 331.29 22.4931C331.492 20.5359 331.307 18.558 330.745 16.6723C330.184 14.7866 329.256 13.03 328.015 11.5029C326.774 9.97575 325.245 8.70795 323.514 7.7719L323.242 7.6282C321.057 6.44287 318.611 5.82156 316.125 5.82059Z" fill="#627F92"/>
<path d="M351.218 168.611H320.209V80.1216C320.209 76.0476 321.827 72.1405 324.708 69.2598C327.589 66.3791 331.496 64.7607 335.57 64.7607H335.88C339.953 64.7627 343.858 66.382 346.737 69.2625C349.616 72.143 351.233 76.0489 351.233 80.1216L351.218 168.611Z" fill="#C2F0FF"/>
<path d="M351.603 168.981H319.838V80.0837C319.842 75.9107 321.501 71.9098 324.452 68.959C327.403 66.0082 331.404 64.3487 335.577 64.3447H335.879C340.052 64.3507 344.052 66.0109 347.002 68.9612C349.952 71.9115 351.612 75.9113 351.618 80.0837L351.603 168.981ZM320.594 168.225H350.847V80.0837C350.841 76.1145 349.263 72.3094 346.457 69.5013C343.652 66.6933 339.849 65.111 335.879 65.101H335.569C331.597 65.105 327.788 66.6848 324.979 69.4938C322.17 72.3027 320.591 76.1113 320.587 80.0837L320.594 168.225Z" fill="#627F92"/>
<path d="M188.602 5.71484H187.642C175.057 5.71484 162.988 10.7142 154.089 19.613C145.19 28.5119 140.19 40.5814 140.19 53.1663V118.308C140.19 124.539 141.418 130.709 143.803 136.466C146.187 142.222 149.683 147.453 154.089 151.859C158.495 156.264 163.727 159.759 169.484 162.143C175.241 164.526 181.411 165.753 187.642 165.752H188.595C194.826 165.753 200.996 164.526 206.753 162.143C212.51 159.759 217.741 156.264 222.148 151.859C226.554 147.453 230.049 142.222 232.434 136.466C234.819 130.709 236.046 124.539 236.046 118.308V53.1663C236.046 40.5827 231.048 28.5144 222.151 19.6157C213.254 10.7171 201.186 5.71685 188.602 5.71484ZM205.037 118.308C205.031 122.66 203.299 126.832 200.221 129.909C197.143 132.986 192.97 134.716 188.618 134.72H187.642C183.29 134.716 179.117 132.986 176.038 129.909C172.96 126.832 171.228 122.66 171.222 118.308V53.1663C171.228 48.8134 172.96 44.6404 176.038 41.5625C179.116 38.4845 183.289 36.7526 187.642 36.7466H188.595C192.952 36.7466 197.13 38.4758 200.213 41.5544C203.296 44.6331 205.031 48.8094 205.037 53.1663V118.308Z" fill="#C2F0FF"/>
<path d="M188.603 166.13H187.642C174.962 166.118 162.804 161.076 153.837 152.111C144.87 143.145 139.827 130.988 139.812 118.308V53.1663C139.827 40.4854 144.87 28.3279 153.837 19.3611C162.804 10.3944 174.961 5.35068 187.642 5.33667H188.595C201.276 5.35068 213.433 10.3944 222.4 19.3611C231.367 28.3279 236.411 40.4854 236.425 53.1663V118.308C236.411 130.987 231.368 143.142 222.402 152.108C213.437 161.073 201.282 166.116 188.603 166.13ZM187.642 6.09299C175.162 6.107 163.197 11.071 154.372 19.8959C145.547 28.7208 140.583 40.686 140.569 53.1663V118.308C140.585 130.787 145.55 142.75 154.374 151.574C163.199 160.397 175.163 165.36 187.642 165.374H188.595C201.074 165.36 213.038 160.397 221.863 151.574C230.687 142.75 235.652 130.787 235.668 118.308V53.1663C235.654 40.686 230.69 28.7208 221.865 19.8959C213.041 11.071 201.075 6.107 188.595 6.09299H187.642ZM188.595 135.098H187.642C183.19 135.094 178.92 133.324 175.771 130.177C172.622 127.029 170.85 122.761 170.844 118.308V53.1663C170.848 48.7124 172.619 44.4422 175.769 41.2928C178.918 38.1435 183.188 36.3724 187.642 36.3684H188.595C193.049 36.3724 197.319 38.1435 200.469 41.2928C203.618 44.4422 205.389 48.7124 205.393 53.1663V118.308C205.387 122.759 203.616 127.026 200.469 130.174C197.321 133.321 193.054 135.092 188.603 135.098H188.595ZM187.642 37.1248C183.389 37.1288 179.311 38.8201 176.303 41.8276C173.296 44.8351 171.605 48.913 171.601 53.1663V118.308C171.607 122.56 173.299 126.636 176.306 129.642C179.313 132.648 183.39 134.338 187.642 134.342H188.595C192.847 134.338 196.924 132.648 199.931 129.642C202.938 126.636 204.631 122.56 204.637 118.308V53.1663C204.633 48.913 202.941 44.8351 199.934 41.8276C196.926 38.8201 192.848 37.1288 188.595 37.1248H187.642Z" fill="#627F92"/>
<path d="M104.574 86.7466H21.9995C13.516 86.7466 6.63867 93.6239 6.63867 102.107V102.418C6.63867 110.901 13.516 117.778 21.9995 117.778H104.574C113.058 117.778 119.935 110.901 119.935 102.418V102.107C119.935 93.6239 113.058 86.7466 104.574 86.7466Z" fill="#91E4FF"/>
<path d="M22.0096 86.7391C19.8098 86.7312 17.6345 87.2009 15.6338 88.1156L10.3396 97.9024C9.15587 100.092 8.52222 102.536 8.49323 105.025C8.46424 107.514 9.04079 109.973 10.1732 112.189C11.6124 113.935 13.4199 115.341 15.4663 116.306C17.5126 117.271 19.7471 117.771 22.0096 117.771H33.1804C35.0279 116.432 36.5504 114.695 37.6352 112.688L51.6649 86.7391H22.0096Z" fill="#54C5E8"/>
<path d="M103.395 86.7466H72.3633V117.778H103.395V86.7466Z" fill="#54C5E8"/>
<path d="M104.575 118.149H22.0073C17.833 118.147 13.8301 116.489 10.8777 113.538C7.92529 110.587 6.26475 106.584 6.26074 102.41V102.1C6.26675 97.9264 7.92793 93.9254 10.8799 90.9749C13.8319 88.0243 17.8336 86.3651 22.0073 86.3611H104.575C108.75 86.3631 112.753 88.0215 115.707 90.9722C118.661 93.923 120.323 97.9251 120.329 102.1V102.41C120.325 106.586 118.663 110.589 115.709 113.54C112.755 116.491 108.75 118.149 104.575 118.149ZM22.0073 87.1174C18.0355 87.1234 14.2281 88.7039 11.4196 91.5124C8.61108 94.3208 7.03062 98.1283 7.02462 102.1V102.41C7.02863 106.383 8.60844 110.191 11.4174 113C14.2263 115.809 18.0349 117.389 22.0073 117.393H104.575C108.55 117.393 112.362 115.815 115.174 113.005C117.987 110.196 119.568 106.385 119.572 102.41V102.1C119.566 98.1283 117.986 94.3208 115.177 91.5124C112.369 88.7039 108.562 87.1234 104.59 87.1174H22.0073Z" fill="#627F92"/>
<path d="M51.7485 13.511L7.30834 95.6671C3.27206 103.129 6.04902 112.45 13.5109 116.486L13.7836 116.634C21.2455 120.67 30.5665 117.893 34.6028 110.431L79.043 28.2752C83.0793 20.8133 80.3023 11.4923 72.8405 7.45598L72.5677 7.30844C65.1059 3.27216 55.7848 6.04912 51.7485 13.511Z" fill="#C2F0FF"/>
<path d="M21.0841 118.852C18.4746 118.848 15.9069 118.196 13.6117 116.954L13.3394 116.81C9.67037 114.821 6.9402 111.457 5.74779 107.458C4.55537 103.458 4.99807 99.1484 6.97877 95.4746L51.4125 13.3157C52.3953 11.4977 53.7267 9.89112 55.3307 8.58784C56.9346 7.28455 58.7796 6.31008 60.7603 5.72009C62.7409 5.1301 64.8185 4.93616 66.8741 5.14936C68.9298 5.36257 70.9233 5.97872 72.7407 6.96263L73.013 7.10633C74.8316 8.0885 76.4389 9.41944 77.743 11.0231C79.047 12.6267 80.0223 14.4716 80.613 16.4524C81.2037 18.4331 81.3983 20.5108 81.1856 22.5668C80.973 24.6227 80.3572 26.6166 79.3736 28.4345L34.9399 110.601C33.5899 113.099 31.5891 115.185 29.1497 116.637C26.7104 118.09 23.9233 118.855 21.0841 118.852ZM65.2683 5.82059C62.5651 5.818 59.9117 6.54713 57.5895 7.93063C55.2672 9.31412 53.3627 11.3004 52.0781 13.6787L7.63677 95.8377C5.75429 99.3345 5.33406 103.435 6.46807 107.241C7.60208 111.047 10.1979 114.248 13.6873 116.145L13.9672 116.289C15.697 117.226 17.5946 117.812 19.5515 118.015C21.5083 118.218 23.4859 118.034 25.3713 117.472C27.2567 116.91 29.0128 115.981 30.5391 114.74C32.0655 113.499 33.3322 111.969 34.2668 110.238L78.7307 28.0791C79.6669 26.3484 80.253 24.4503 80.4556 22.4931C80.6582 20.5359 80.4733 18.558 79.9114 16.6723C79.3496 14.7866 78.4218 13.03 77.181 11.5029C75.9403 9.97575 74.4109 8.70795 72.6802 7.7719L72.4004 7.6282C70.2113 6.43952 67.7593 5.81808 65.2683 5.82059Z" fill="#627F92"/>
<path d="M100.369 168.611H69.3604V80.1216C69.3604 76.0476 70.9787 72.1405 73.8594 69.2598C76.7401 66.3791 80.6472 64.7607 84.7212 64.7607H85.0313C89.1046 64.7627 93.0105 66.3818 95.8908 69.262C98.7711 72.1423 100.39 76.0482 100.392 80.1216L100.369 168.611Z" fill="#C2F0FF"/>
<path d="M100.746 168.981H68.9805V80.0837C68.9845 75.9107 70.644 71.9098 73.5947 68.959C76.5455 66.0082 80.5465 64.3487 84.7195 64.3447H85.0296C89.202 64.3507 93.2017 66.0109 96.1521 68.9612C99.1024 71.9115 100.763 75.9113 100.769 80.0837L100.746 168.981ZM69.7368 168.225H99.9895V80.0837C99.9835 76.1119 98.4031 72.3045 95.5946 69.496C92.7861 66.6875 88.9787 65.107 85.0069 65.101H84.6968C80.7243 65.105 76.9158 66.6848 74.1068 69.4938C71.2979 72.3027 69.7181 76.1113 69.7141 80.0837L69.7368 168.225Z" fill="#627F92"/>
<path d="M116.726 32.839C118.033 25.1508 112.86 17.8586 105.172 16.5513C97.4841 15.244 90.1918 20.4168 88.8846 28.105C87.5773 35.7931 92.7501 43.0854 100.438 44.3926C108.126 45.6999 115.419 40.5271 116.726 32.839Z" fill="#E3F8FF"/>
<path d="M115.226 31.3463C116.533 23.6581 111.36 16.3659 103.672 15.0586C95.9841 13.7514 88.6918 18.9241 87.3846 26.6123C86.0773 34.3005 91.2501 41.5927 98.9382 42.9C106.626 44.2072 113.919 39.0345 115.226 31.3463Z" fill="#FBB61B"/>
<path d="M104.663 15.2671C107.915 16.6705 110.521 19.2461 111.961 22.4821C113.401 25.718 113.572 29.3775 112.438 32.7332C111.304 36.0889 108.949 38.8952 105.841 40.5944C102.733 42.2936 99.1 42.7613 95.6631 41.9046C97.4557 42.6916 99.3924 43.0971 101.35 43.0952C103.308 43.0933 105.244 42.6841 107.035 41.8936C108.826 41.1031 110.433 39.9487 111.754 38.5036C113.074 37.0586 114.08 35.3545 114.707 33.4998C115.333 31.6451 115.567 29.6803 115.394 27.7303C115.22 25.7803 114.643 23.8877 113.698 22.1729C112.753 20.4582 111.462 18.9587 109.907 17.7698C108.352 16.5809 106.566 15.7286 104.663 15.2671Z" fill="white"/>
<path d="M101.298 43.4929C98.6925 43.4931 96.135 42.7913 93.8946 41.4611C91.6542 40.1309 89.8137 38.2216 88.5666 35.9339C87.3194 33.6463 86.7118 31.0648 86.8077 28.461C86.9035 25.8573 87.6992 23.3274 89.1111 21.1376C90.523 18.9478 92.4989 17.1789 94.831 16.017C97.1631 14.8551 99.7652 14.3432 102.364 14.5349C104.962 14.7267 107.461 15.6152 109.597 17.1069C111.733 18.5986 113.428 20.6384 114.503 23.0118C114.545 23.103 114.55 23.2073 114.515 23.3016C114.48 23.3959 114.409 23.4726 114.318 23.5147C114.227 23.5568 114.122 23.561 114.028 23.5262C113.934 23.4915 113.857 23.4207 113.815 23.3294C112.415 20.2418 109.923 17.7808 106.818 16.4201C103.713 15.0595 100.215 14.8952 96.996 15.9589C93.7771 17.0226 91.0654 19.2391 89.3825 22.182C87.6997 25.1249 87.1647 28.5862 87.8804 31.8998C88.5962 35.2135 90.5121 38.1453 93.2596 40.1313C96.007 42.1172 99.3919 43.0169 102.763 42.6572C106.134 42.2975 109.253 40.7039 111.519 38.1829C113.786 35.662 115.04 32.3919 115.04 29.0018C115.04 28.9015 115.08 28.8053 115.151 28.7344C115.222 28.6635 115.318 28.6236 115.418 28.6236C115.519 28.6236 115.615 28.6635 115.686 28.7344C115.757 28.8053 115.797 28.9015 115.797 29.0018C115.793 32.8452 114.264 36.5298 111.545 39.2468C108.827 41.9637 105.141 43.4909 101.298 43.4929Z" fill="#627F92"/>
<path d="M169.988 23.9638V23.9056C169.889 23.1909 169.604 22.5149 169.161 21.9456C168.717 21.3763 168.132 20.9338 167.464 20.6626C166.628 20.3182 165.701 20.2669 164.832 20.517C164.468 19.256 163.716 18.1418 162.682 17.3321C161.649 16.5224 160.388 16.0584 159.076 16.0058C157.765 15.9531 156.47 16.3146 155.375 17.0388C154.28 17.7631 153.441 18.8135 152.977 20.0412H152.559C151.431 20.0412 150.348 20.4889 149.549 21.2862C148.75 22.0835 148.299 23.1652 148.297 24.294C148.32 25.0048 148.62 25.6784 149.134 26.1703C149.648 26.6622 150.333 26.9333 151.045 26.9253H167.269C167.648 26.9283 168.023 26.8518 168.371 26.7008C168.718 26.5497 169.03 26.3275 169.286 26.0484C169.543 25.7693 169.737 25.4396 169.858 25.0805C169.979 24.7215 170.023 24.341 169.988 23.9638Z" fill="#E3F8FF"/>
<path d="M56.9772 37.7512C56.9672 37.6025 56.9672 37.4532 56.9772 37.3045C57.0765 36.4005 57.4276 35.5426 57.9907 34.8285C58.5537 34.1144 59.3061 33.5727 60.1619 33.2653C61.079 32.9325 62.0772 32.8951 63.0166 33.1585C63.5089 31.8713 64.4189 30.7866 65.6009 30.078C66.7829 29.3694 68.1685 29.0779 69.5359 29.2502C70.9032 29.4225 72.1731 30.0487 73.1424 31.0284C74.1116 32.0081 74.7241 33.2847 74.8817 34.6538C75.7134 34.6538 76.5111 34.9842 77.0993 35.5724C77.6874 36.1605 78.0178 36.9582 78.0178 37.79C77.9978 38.2914 77.7843 38.7657 77.4223 39.1132C77.0603 39.4607 76.5778 39.6546 76.0759 39.6542H58.9579C58.7029 39.6594 58.4494 39.6142 58.2118 39.5214C57.9742 39.4285 57.7573 39.2898 57.5733 39.1131C57.3894 38.9363 57.2421 38.7251 57.1398 38.4914C57.0375 38.2577 56.9823 38.0062 56.9772 37.7512Z" fill="#E3F8FF"/>
<path d="M143.248 59.287C143.495 59.2947 143.742 59.2537 143.973 59.1661C144.205 59.0786 144.417 58.9463 144.597 58.7767C144.777 58.6072 144.923 58.4038 145.024 58.1781C145.126 57.9525 145.182 57.709 145.19 57.4616C145.187 56.41 144.768 55.4024 144.023 54.6598C143.279 53.9171 142.27 53.5001 141.219 53.5001C141.048 51.6064 140.206 49.8361 138.845 48.5086C137.483 47.1811 135.692 46.3839 133.795 46.2609C131.898 46.1378 130.019 46.697 128.498 47.8375C126.976 48.9781 125.913 50.6248 125.499 52.4806C124.763 51.9567 123.906 51.6281 123.008 51.5255C122.111 51.423 121.202 51.5498 120.366 51.8942C119.531 52.2386 118.797 52.7892 118.233 53.4946C117.668 54.2 117.292 55.0371 117.139 55.9275C117.032 56.541 117.032 57.1684 117.139 57.782C117.223 58.2138 117.455 58.6026 117.796 58.881C118.136 59.1594 118.563 59.3099 119.003 59.3064L143.248 59.287Z" fill="#E3F8FF"/>
</svg>
