<svg width="525" height="467" viewBox="0 0 525 467" fill="none" xmlns="http://www.w3.org/2000/svg">
<g clip-path="url(#clip0_73_1372)">
<path d="M0 0H438.35C486.205 0 525 38.7945 525 86.65V380.35C525 428.205 486.205 467 438.35 467H0V0Z" fill="#0C1239"/>
<g opacity="0.3">
<path d="M515.394 407.368H535V488.437H515.394V407.368ZM534.548 407.934H515.896V487.745H534.548V407.934Z" fill="white"/>
<path d="M531.179 415.419H519.164V416.048H531.179V415.419Z" fill="white"/>
<path d="M531.179 424.601H519.164V425.23H531.179V424.601Z" fill="white"/>
<path d="M531.179 433.783H519.164V434.412H531.179V433.783Z" fill="white"/>
<path d="M531.179 442.966H519.164V443.595H531.179V442.966Z" fill="white"/>
<path d="M531.179 452.148H519.164V452.777H531.179V452.148Z" fill="white"/>
<path d="M531.179 461.33H519.164V461.959H531.179V461.33Z" fill="white"/>
<path d="M517.607 380.765H532.789V407.683H517.607V380.765ZM532.286 381.394H518.059V407.117H532.286V381.394Z" fill="white"/>
<path d="M529.572 386.488H520.875V387.117H529.572V386.488Z" fill="white"/>
<path d="M529.572 393.909H520.875V394.538H529.572V393.909Z" fill="white"/>
<path d="M529.572 401.394H520.875V402.022H529.572V401.394Z" fill="white"/>
<path d="M519.164 366.3H531.229V381.394H519.164V366.3ZM530.727 366.866H519.616V380.702H530.727V366.866Z" fill="white"/>
<path d="M520.923 350.954H529.47V366.866H520.923V350.954ZM529.017 351.583H521.426V366.3H529.017V351.583Z" fill="white"/>
<path d="M525.448 336.237H524.945V351.269H525.448V336.237Z" fill="white"/>
<path d="M479.851 407.369H499.457V488.437H479.851V407.369ZM498.955 407.935H480.303V487.745H498.955V407.935Z" fill="white"/>
<path d="M495.637 415.419H483.621V416.048H495.637V415.419Z" fill="white"/>
<path d="M495.637 424.602H483.621V425.23H495.637V424.602Z" fill="white"/>
<path d="M495.637 433.784H483.621V434.413H495.637V433.784Z" fill="white"/>
<path d="M495.637 442.966H483.621V443.595H495.637V442.966Z" fill="white"/>
<path d="M495.637 452.148H483.621V452.777H495.637V452.148Z" fill="white"/>
<path d="M495.637 461.331H483.621V461.959H495.637V461.331Z" fill="white"/>
<path d="M482.062 380.765H497.244V407.683H482.062V380.765ZM496.742 381.394H482.514V407.117H496.742V381.394Z" fill="white"/>
<path d="M493.976 386.488H485.279V387.117H493.976V386.488Z" fill="white"/>
<path d="M493.976 393.909H485.279V394.538H493.976V393.909Z" fill="white"/>
<path d="M493.976 401.394H485.279V402.022H493.976V401.394Z" fill="white"/>
<path d="M483.621 366.3H495.687V381.394H483.621V366.3ZM495.184 366.866H484.074V380.702H495.184V366.866Z" fill="white"/>
<path d="M485.33 350.954H493.876V366.866H485.33V350.954ZM493.424 351.583H485.833V366.3H493.424V351.583Z" fill="white"/>
<path d="M489.906 336.237H489.403V351.269H489.906V336.237Z" fill="white"/>
<path d="M498.955 418.06H515.846V426.991H498.955V418.06ZM515.394 418.689H499.457V426.425H515.394V418.689Z" fill="white"/>
<path d="M498.955 438.815H515.846V447.745H498.955V438.815ZM515.394 439.381H499.457V447.116H515.394V439.381Z" fill="white"/>
<path d="M437.771 433.783H470.096V488.374H437.771V433.783ZM469.594 434.412H438.274V487.808H469.594V434.412Z" fill="white"/>
<path d="M455.971 441.268H464.518V451.959H455.971V441.268ZM464.065 441.834H456.474V451.33H464.065V441.834Z" fill="white"/>
<path d="M443.352 441.268H451.898V451.959H443.352V441.268ZM451.396 441.834H443.805V451.33H451.396V441.834Z" fill="white"/>
<path d="M455.971 455.733H464.518V466.425H455.971V455.733ZM464.065 456.362H456.474V465.859H464.065V456.362Z" fill="white"/>
<path d="M443.352 455.733H451.898V466.425H443.352V455.733ZM451.396 456.362H443.805V465.859H451.396V456.362Z" fill="white"/>
<path d="M94.6096 433.783H126.935V488.374H94.6096V433.783ZM126.432 434.412H95.1123V487.808H126.432V434.412Z" fill="white"/>
<path d="M112.808 441.268H121.354V451.959H112.808V441.268ZM120.852 441.834H113.26V451.33H120.852V441.834Z" fill="white"/>
<path d="M100.14 441.268H108.686V451.959H100.14V441.268ZM108.234 441.834H100.642V451.33H108.234V441.834Z" fill="white"/>
<path d="M112.808 455.733H121.354V466.425H112.808V455.733ZM120.852 456.362H113.26V465.859H120.852V456.362Z" fill="white"/>
<path d="M100.14 455.733H108.686V466.425H100.14V455.733ZM108.234 456.362H100.642V465.859H108.234V456.362Z" fill="white"/>
<path d="M397.704 415.419H429.778V488.374H397.704V415.419ZM429.325 416.048H398.207V487.808H429.325V416.048Z" fill="white"/>
<path d="M423.896 425.67H403.636V426.299H423.896V425.67Z" fill="white"/>
<path d="M423.896 436.047H403.636V436.676H423.896V436.047Z" fill="white"/>
<path d="M423.896 446.425H403.636V447.053H423.896V446.425Z" fill="white"/>
<path d="M423.896 456.802H403.636V457.431H423.896V456.802Z" fill="white"/>
<path d="M403.385 405.293H424.148V415.985H403.385V405.293ZM423.645 405.922H403.888V415.419H423.645V405.922Z" fill="white"/>
<path d="M136.788 415.419H168.862V488.374H136.788V415.419ZM168.409 416.048H137.29V487.808H168.409V416.048Z" fill="white"/>
<path d="M162.98 425.67H142.72V426.299H162.98V425.67Z" fill="white"/>
<path d="M162.98 436.047H142.72V436.676H162.98V436.047Z" fill="white"/>
<path d="M162.98 446.424H142.72V447.053H162.98V446.424Z" fill="white"/>
<path d="M162.98 456.802H142.72V457.43H162.98V456.802Z" fill="white"/>
<path d="M142.469 405.293H163.232V415.985H142.469V405.293ZM162.729 405.922H142.972V415.419H162.729V405.922Z" fill="white"/>
<path d="M300.023 415.419H332.098V488.374H300.023V415.419ZM331.645 416.048H300.526V487.808H331.645V416.048Z" fill="white"/>
<path d="M326.216 425.67H305.956V426.299H326.216V425.67Z" fill="white"/>
<path d="M326.216 436.047H305.956V436.676H326.216V436.047Z" fill="white"/>
<path d="M326.216 446.424H305.956V447.053H326.216V446.424Z" fill="white"/>
<path d="M326.216 456.802H305.956V457.43H326.216V456.802Z" fill="white"/>
<path d="M305.705 405.293H326.467V415.985H305.705V405.293ZM325.965 405.922H306.207V415.419H325.965V405.922Z" fill="white"/>
<path d="M342.504 366.3H387.398V488.374H342.504V366.3ZM386.895 366.866H342.956V487.745H386.895V366.866Z" fill="white"/>
<path d="M365.178 366.614H364.675V488.122H365.178V366.614Z" fill="white"/>
<path d="M381.717 379.067H369.702V379.696H381.717V379.067Z" fill="white"/>
<path d="M381.717 388.25H369.702V388.878H381.717V388.25Z" fill="white"/>
<path d="M381.717 397.432H369.702V398.061H381.717V397.432Z" fill="white"/>
<path d="M381.717 406.614H369.702V407.243H381.717V406.614Z" fill="white"/>
<path d="M381.717 415.859H369.702V416.488H381.717V415.859Z" fill="white"/>
<path d="M359.346 438.186H347.331V438.815H359.346V438.186Z" fill="white"/>
<path d="M359.346 447.368H347.331V447.997H359.346V447.368Z" fill="white"/>
<path d="M359.346 456.551H347.331V457.18H359.346V456.551Z" fill="white"/>
<path d="M359.346 465.733H347.331V466.362H359.346V465.733Z" fill="white"/>
<path d="M347.08 358.627H381.969V366.866H347.08V358.627ZM381.466 359.256H347.582V366.3H381.466V359.256Z" fill="white"/>
<path d="M219.587 446.425H291.527V488.374H219.587V446.425ZM291.024 446.991H220.039V487.745H291.024V446.991Z" fill="white"/>
<path d="M219.587 436.048H255.783V446.991H219.587V436.048ZM255.28 436.677H220.039V446.425H255.28V436.677Z" fill="white"/>
<path d="M255.783 446.74H255.281V488.123H255.783V446.74Z" fill="white"/>
<path d="M248.845 458.563H226.474V459.192H248.845V458.563Z" fill="white"/>
<path d="M248.845 452.966H226.474V453.595H248.845V452.966Z" fill="white"/>
<path d="M10 446.425H81.9405V488.374H10V446.425ZM81.4378 446.991H10.5027V487.745H81.488V446.991H81.4378Z" fill="white"/>
<path d="M10 436.048H46.1965V446.991H10V436.048ZM45.744 436.677H10.5027V446.425H45.744V436.677Z" fill="white"/>
<path d="M46.2474 446.739H45.7446V488.122H46.2474V446.739Z" fill="white"/>
<path d="M39.3094 458.562H16.938V459.191H39.3094V458.562Z" fill="white"/>
<path d="M39.3094 452.965H16.938V453.594H39.3094V452.965Z" fill="white"/>
<path d="M178.717 433.784H211.042V488.374H178.717V433.784ZM210.539 434.413H179.219V487.808H210.539V434.413Z" fill="white"/>
<path d="M196.915 441.268H205.461V451.96H196.915V441.268ZM204.958 441.834H197.367V451.331H204.958V441.834Z" fill="white"/>
<path d="M184.247 441.268H192.793V451.96H184.247V441.268ZM192.341 441.834H184.749V451.331H192.341V441.834Z" fill="white"/>
<path d="M196.915 455.733H205.461V466.425H196.915V455.733ZM204.958 456.362H197.367V465.859H204.958V456.362Z" fill="white"/>
<path d="M184.247 455.733H192.793V466.425H184.247V455.733ZM192.341 456.362H184.749V465.859H192.341V456.362Z" fill="white"/>
<path d="M184.247 401.457H205.462V434.35H184.247V401.457ZM204.959 402.086H184.699V433.784H204.959V402.086Z" fill="white"/>
<path d="M188.319 379.067H201.441V402.086H188.319V379.067ZM200.938 379.696H188.772V401.457H200.938V379.696Z" fill="white"/>
<path d="M195.106 358.942H194.604V379.382H195.106V358.942Z" fill="white"/>
</g>
<path opacity="0.14" d="M24.346 248.202L53.3843 254.847L53.3843 266.167L36.8964 269.53L53.3843 272.893L53.3843 284.213L24.346 290.857L24.346 281.055L42.6385 278.43L24.346 274.493L24.346 264.567L42.6385 260.63L24.346 258.005L24.346 248.202ZM31.6056 229.68L35.1738 229.68L35.1738 220.657L42.0233 220.657L42.0233 229.68L46.1247 229.68L46.1247 219.426L53.3843 219.426L53.3843 238.785L24.346 238.785L24.346 219.426L31.6056 219.426L31.6056 229.68ZM48.9957 191.222L48.9957 200.901L53.3843 202.337L53.3843 211.893L24.346 201.271L24.346 190.771L53.3843 180.189L53.3843 189.787L48.9957 191.222ZM42.1463 193.437L34.0664 196.062L42.1463 198.687L42.1463 193.437ZM24.346 137.065L53.3843 137.065L53.3843 146.129L38.9062 146.129L53.3843 150.6L53.3843 158.392L38.9062 162.863L53.3843 162.863L53.3843 171.968L24.346 171.968L24.346 160.812L41.7772 154.414L24.346 148.18L24.346 137.065ZM64.346 248.202L93.3843 254.847L93.3843 266.167L76.8964 269.53L93.3843 272.893L93.3843 284.213L64.346 290.857L64.346 281.055L82.6385 278.43L64.346 274.493L64.346 264.567L82.6385 260.63L64.346 258.005L64.346 248.202ZM71.6056 229.68L75.1738 229.68L75.1738 220.657L82.0233 220.657L82.0233 229.68L86.1247 229.68L86.1247 219.426L93.3843 219.426L93.3843 238.785L64.346 238.785L64.346 219.426L71.6056 219.426L71.6056 229.68ZM88.9957 191.222L88.9957 200.901L93.3843 202.337L93.3843 211.893L64.346 201.271L64.346 190.771L93.3843 180.189L93.3843 189.787L88.9957 191.222ZM82.1463 193.437L74.0664 196.062L82.1463 198.687L82.1463 193.437ZM64.346 137.065L93.3843 137.065L93.3843 146.129L78.9062 146.129L93.3843 150.6L93.3843 158.392L78.9062 162.863L93.3843 162.863L93.3843 171.968L64.346 171.968L64.346 160.812L81.7772 154.414L64.346 148.18L64.346 137.065Z" fill="url(#paint0_linear_73_1372)"/>
</g>
<defs>
<linearGradient id="paint0_linear_73_1372" x1="18.3843" y1="197.35" x2="98.8204" y2="207.862" gradientUnits="userSpaceOnUse">
<stop stop-color="white"/>
<stop offset="1" stop-color="#0F1437"/>
</linearGradient>
<clipPath id="clip0_73_1372">
<path d="M0 0H438.35C486.205 0 525 38.7945 525 86.65V380.35C525 428.205 486.205 467 438.35 467H0V0Z" fill="white"/>
</clipPath>
</defs>
</svg>
