<svg width="1132" height="139" viewBox="0 0 1132 139" fill="none" xmlns="http://www.w3.org/2000/svg">
<g opacity="0.3">
<path d="M21.1377 64.8632H7.43866e-05V138.788H21.1377V64.8632ZM0.487877 65.3794H20.5957V138.157H0.487877V65.3794Z" fill="white"/>
<path d="M4.11971 72.204H17.0732V72.7775H4.11971V72.204Z" fill="white"/>
<path d="M4.11971 80.5774H17.0732V81.1509H4.11971V80.5774Z" fill="white"/>
<path d="M4.11971 88.9505H17.0732V89.524H4.11971V88.9505Z" fill="white"/>
<path d="M4.11971 97.3236H17.0732V97.8971H4.11971V97.3236Z" fill="white"/>
<path d="M4.11971 105.697H17.0732V106.27H4.11971V105.697Z" fill="white"/>
<path d="M4.11971 114.07H17.0732V114.643H4.11971V114.07Z" fill="white"/>
<path d="M4.11971 122.443H17.0732V123.017H4.11971V122.443Z" fill="white"/>
<path d="M4.11971 130.816H17.0732V131.39H4.11971V130.816Z" fill="white"/>
<path d="M18.7515 40.6039H2.38338V65.1499H18.7515V40.6039ZM2.92537 41.1774H18.2637V64.6337H2.92537V41.1774Z" fill="white"/>
<path d="M5.85162 45.8229H15.228V46.3964H5.85162V45.8229Z" fill="white"/>
<path d="M5.85162 52.59H15.228V53.1635H5.85162V52.59Z" fill="white"/>
<path d="M5.85162 59.4148H15.228V59.9883H5.85162V59.4148Z" fill="white"/>
<path d="M17.0732 27.4136H4.06546V41.1777H17.0732V27.4136ZM4.60745 27.9298H16.5854V40.5468H4.60745V27.9298Z" fill="white"/>
<path d="M15.1758 13.4201H5.96193V27.9297H15.1758V13.4201ZM6.44973 13.9936H14.6338V27.4136H6.44973V13.9936Z" fill="white"/>
<path d="M10.2974 0H10.8394V13.7067H10.2974V0Z" fill="white"/>
<path d="M59.4561 64.8632H38.3185V138.788H59.4561V64.8632ZM38.8605 65.3794H58.9683V138.157H38.8605V65.3794Z" fill="white"/>
<path d="M42.4376 72.204H55.3911V72.7775H42.4376V72.204Z" fill="white"/>
<path d="M42.4376 80.5774H55.3911V81.1509H42.4376V80.5774Z" fill="white"/>
<path d="M42.4376 88.9505H55.3911V89.524H42.4376V88.9505Z" fill="white"/>
<path d="M42.4376 97.3236H55.3911V97.8971H42.4376V97.3236Z" fill="white"/>
<path d="M42.4376 105.697H55.3911V106.27H42.4376V105.697Z" fill="white"/>
<path d="M42.4376 114.07H55.3911V114.643H42.4376V114.07Z" fill="white"/>
<path d="M42.4376 122.443H55.3911V123.017H42.4376V122.443Z" fill="white"/>
<path d="M42.4376 130.816H55.3911V131.39H42.4376V130.816Z" fill="white"/>
<path d="M57.0718 40.6039H40.7037V65.1499H57.0718V40.6039ZM41.2457 41.1774H56.584V64.6337H41.2457V41.1774Z" fill="white"/>
<path d="M44.2276 45.8229H53.604V46.3964H44.2276V45.8229Z" fill="white"/>
<path d="M44.2276 52.59H53.604V53.1635H44.2276V52.59Z" fill="white"/>
<path d="M44.2276 59.4148H53.604V59.9883H44.2276V59.4148Z" fill="white"/>
<path d="M55.3911 27.4136H42.3834V41.1777H55.3911V27.4136ZM42.9254 27.9298H54.9033V40.5468H42.9254V27.9298Z" fill="white"/>
<path d="M53.5488 13.4201H44.335V27.9297H53.5488V13.4201ZM44.8228 13.9936H53.0068V27.4136H44.8228V13.9936Z" fill="white"/>
<path d="M48.6162 0H49.1582V13.7067H48.6162V0Z" fill="white"/>
<path d="M38.8604 74.6129H20.6495V82.7567H38.8604V74.6129ZM21.1373 75.1864H38.3184V82.2405H21.1373V75.1864Z" fill="white"/>
<path d="M38.8604 93.5383H20.6495V101.682H38.8604V93.5383ZM21.1373 94.0545H38.3184V101.109H21.1373V94.0545Z" fill="white"/>
<path d="M104.822 88.9503H69.9724V138.73H104.822V88.9503ZM70.5143 89.5238H104.28V138.214H70.5143V89.5238Z" fill="white"/>
<path d="M85.2007 95.775H75.9869V105.525H85.2007V95.775ZM76.4746 96.2911H84.6587V104.951H76.4746V96.2911Z" fill="white"/>
<path d="M98.8052 95.7749H89.5914V105.524H98.8052V95.7749ZM90.1333 96.2911H98.3174V104.951H90.1333V96.2911Z" fill="white"/>
<path d="M85.2007 108.966H75.9869V118.715H85.2007V108.966ZM76.4746 109.539H84.6587V118.199H76.4746V109.539Z" fill="white"/>
<path d="M98.8052 108.966H89.5914V118.715H98.8052V108.966ZM90.1333 109.539H98.3174V118.199H90.1333V109.539Z" fill="white"/>
<path d="M85.2007 122.156H75.9869V131.906H85.2007V122.156ZM76.4746 122.73H84.6587V131.39H76.4746V122.73Z" fill="white"/>
<path d="M98.8052 122.156H89.5914V131.906H98.8052V122.156ZM90.1333 122.73H98.3174V131.39H90.1333V122.73Z" fill="white"/>
<path d="M474.782 88.9503H439.932V138.73H474.782V88.9503ZM440.474 89.5238H474.24V138.214H440.474V89.5238Z" fill="white"/>
<path d="M455.163 95.775H445.949V105.525H455.163V95.775ZM446.491 96.2911H454.675V104.951H446.491V96.2911Z" fill="white"/>
<path d="M468.821 95.7749H459.607V105.524H468.821V95.7749ZM460.095 96.2911H468.279V104.951H460.095V96.2911Z" fill="white"/>
<path d="M455.163 108.966H445.949V118.715H455.163V108.966ZM446.491 109.539H454.675V118.199H446.491V109.539Z" fill="white"/>
<path d="M468.821 108.966H459.607V118.715H468.821V108.966ZM460.095 109.539H468.279V118.199H460.095V109.539Z" fill="white"/>
<path d="M455.163 122.156H445.949V131.906H455.163V122.156ZM446.491 122.73H454.675V131.39H446.491V122.73Z" fill="white"/>
<path d="M468.821 122.156H459.607V131.906H468.821V122.156ZM460.095 122.73H468.279V131.39H460.095V122.73Z" fill="white"/>
<path d="M148.018 72.2039H113.439V138.73H148.018V72.2039ZM113.927 72.7774H147.476V138.214H113.927V72.7774Z" fill="white"/>
<path d="M119.78 81.5519H141.623V82.1254H119.78V81.5519Z" fill="white"/>
<path d="M119.78 91.0145H141.623V91.588H119.78V91.0145Z" fill="white"/>
<path d="M119.78 100.477H141.623V101.051H119.78V100.477Z" fill="white"/>
<path d="M119.78 109.94H141.623V110.514H119.78V109.94Z" fill="white"/>
<path d="M119.78 119.346H141.623V119.919H119.78V119.346Z" fill="white"/>
<path d="M119.78 128.808H141.623V129.382H119.78V128.808Z" fill="white"/>
<path d="M141.893 62.9703H119.509V72.7199H141.893V62.9703ZM120.051 63.5438H141.351V72.2037H120.051V63.5438Z" fill="white"/>
<path d="M429.311 72.2039H394.732V138.73H429.311V72.2039ZM395.22 72.7774H428.769V138.214H395.22V72.7774Z" fill="white"/>
<path d="M401.072 81.5519H422.915V82.1254H401.072V81.5519Z" fill="white"/>
<path d="M401.072 91.0145H422.915V91.588H401.072V91.0145Z" fill="white"/>
<path d="M401.072 100.477H422.915V101.051H401.072V100.477Z" fill="white"/>
<path d="M401.072 109.94H422.915V110.514H401.072V109.94Z" fill="white"/>
<path d="M401.072 119.346H422.915V119.919H401.072V119.346Z" fill="white"/>
<path d="M401.072 128.808H422.915V129.382H401.072V128.808Z" fill="white"/>
<path d="M423.186 62.9703H400.802V72.7199H423.186V62.9703ZM401.344 63.5438H422.644V72.2037H401.344V63.5438Z" fill="white"/>
<path d="M253.327 72.2039H218.748V138.73H253.327V72.2039ZM219.236 72.7774H252.785V138.214H219.236V72.7774Z" fill="white"/>
<path d="M225.089 81.5519H246.931V82.1254H225.089V81.5519Z" fill="white"/>
<path d="M225.089 91.0145H246.931V91.588H225.089V91.0145Z" fill="white"/>
<path d="M225.089 100.477H246.931V101.051H225.089V100.477Z" fill="white"/>
<path d="M225.089 109.94H246.931V110.514H225.089V109.94Z" fill="white"/>
<path d="M225.089 119.346H246.931V119.919H225.089V119.346Z" fill="white"/>
<path d="M225.089 128.808H246.931V129.382H225.089V128.808Z" fill="white"/>
<path d="M247.202 62.9703H224.818V72.7199H247.202V62.9703ZM225.36 63.5438H246.66V72.2037H225.36V63.5438Z" fill="white"/>
<path d="M207.529 27.4137H159.129V138.731H207.529V27.4137ZM159.671 27.9298H207.041V138.157H159.671V27.9298Z" fill="white"/>
<path d="M183.084 27.7004H183.626V138.501H183.084V27.7004Z" fill="white"/>
<path d="M165.253 39.056H178.207V39.6295H165.253V39.056Z" fill="white"/>
<path d="M165.253 47.4292H178.207V48.0027H165.253V47.4292Z" fill="white"/>
<path d="M165.253 55.8023H178.207V56.3758H165.253V55.8023Z" fill="white"/>
<path d="M165.253 64.1754H178.207V64.7489H165.253V64.1754Z" fill="white"/>
<path d="M165.253 72.6061H178.207V73.1796H165.253V72.6061Z" fill="white"/>
<path d="M189.371 92.9653H202.325V93.5388H189.371V92.9653Z" fill="white"/>
<path d="M189.371 101.338H202.325V101.912H189.371V101.338Z" fill="white"/>
<path d="M189.371 109.711H202.325V110.285H189.371V109.711Z" fill="white"/>
<path d="M189.371 118.085H202.325V118.658H189.371V118.085Z" fill="white"/>
<path d="M189.371 126.458H202.325V127.031H189.371V126.458Z" fill="white"/>
<path d="M202.596 20.4169H164.982V27.9298H202.596V20.4169ZM165.524 20.9904H202.054V27.4137H165.524V20.9904Z" fill="white"/>
<path d="M340.046 100.478H262.487V138.73H340.046V100.478ZM263.029 100.994H339.558V138.157H263.029V100.994Z" fill="white"/>
<path d="M340.046 91.015H301.023V100.994H340.046V91.015ZM301.565 91.5885H339.558V100.478H301.565V91.5885Z" fill="white"/>
<path d="M301.022 100.765H301.564V138.501H301.022V100.765Z" fill="white"/>
<path d="M270.074 131.561H294.192V132.135H270.074V131.561Z" fill="white"/>
<path d="M270.074 126.457H294.192V127.031H270.074V126.457Z" fill="white"/>
<path d="M308.502 111.546H332.621V112.12H308.502V111.546Z" fill="white"/>
<path d="M308.502 106.442H332.621V107.016H308.502V106.442Z" fill="white"/>
<path d="M566 100.478H488.441V138.73H566V100.478ZM488.983 100.994H565.458V138.157H488.929V100.994H488.983Z" fill="white"/>
<path d="M566 91.0148H526.977V100.994H566V91.0148ZM527.465 91.5883H565.458V100.478H527.465V91.5883Z" fill="white"/>
<path d="M526.922 100.764H527.464V138.501H526.922V100.764Z" fill="white"/>
<path d="M496.028 131.561H520.147V132.135H496.028V131.561Z" fill="white"/>
<path d="M496.028 126.457H520.147V127.031H496.028V126.457Z" fill="white"/>
<path d="M534.402 111.546H558.521V112.12H534.402V111.546Z" fill="white"/>
<path d="M534.402 106.442H558.521V107.016H534.402V106.442Z" fill="white"/>
<path d="M384.107 88.9504H349.258V138.73H384.107V88.9504ZM349.799 89.5239H383.565V138.214H349.799V89.5239Z" fill="white"/>
<path d="M364.488 95.775H355.274V105.525H364.488V95.775ZM355.816 96.2912H364V104.951H355.816V96.2912Z" fill="white"/>
<path d="M378.145 95.775H368.931V105.525H378.145V95.775ZM369.419 96.2912H377.603V104.951H369.419V96.2912Z" fill="white"/>
<path d="M364.488 108.966H355.274V118.715H364.488V108.966ZM355.816 109.539H364V118.199H355.816V109.539Z" fill="white"/>
<path d="M378.145 108.966H368.931V118.715H378.145V108.966ZM369.419 109.539H377.603V118.199H369.419V109.539Z" fill="white"/>
<path d="M364.488 122.156H355.274V131.906H364.488V122.156ZM355.816 122.73H364V131.39H355.816V122.73Z" fill="white"/>
<path d="M378.145 122.156H368.931V131.906H378.145V122.156ZM369.419 122.73H377.603V131.39H369.419V122.73Z" fill="white"/>
<path d="M378.145 59.4724H355.273V89.4666H378.145V59.4724ZM355.815 60.0459H377.657V88.9504H355.815V60.0459Z" fill="white"/>
<path d="M373.754 39.0557H359.608V60.0459H373.754V39.0557ZM360.15 39.6292H373.267V59.4724H360.15V39.6292Z" fill="white"/>
<path d="M366.438 20.7036H366.979V39.3424H366.438V20.7036Z" fill="white"/>
</g>
<g opacity="0.3">
<path d="M1110.86 64.8633H1132V138.788H1110.86V64.8633ZM1131.51 65.3794H1111.4V138.157H1131.51V65.3794Z" fill="white"/>
<path d="M1127.88 72.2041H1114.93V72.7776H1127.88V72.2041Z" fill="white"/>
<path d="M1127.88 80.5775H1114.93V81.151H1127.88V80.5775Z" fill="white"/>
<path d="M1127.88 88.9506H1114.93V89.5241H1127.88V88.9506Z" fill="white"/>
<path d="M1127.88 97.3237H1114.93V97.8972H1127.88V97.3237Z" fill="white"/>
<path d="M1127.88 105.697H1114.93V106.27H1127.88V105.697Z" fill="white"/>
<path d="M1127.88 114.07H1114.93V114.643H1127.88V114.07Z" fill="white"/>
<path d="M1127.88 122.443H1114.93V123.017H1127.88V122.443Z" fill="white"/>
<path d="M1127.88 130.816H1114.93V131.39H1127.88V130.816Z" fill="white"/>
<path d="M1113.25 40.6039H1129.62V65.1499H1113.25V40.6039ZM1129.07 41.1774H1113.74V64.6337H1129.07V41.1774Z" fill="white"/>
<path d="M1126.15 45.8229H1116.77V46.3964H1126.15V45.8229Z" fill="white"/>
<path d="M1126.15 52.59H1116.77V53.1635H1126.15V52.59Z" fill="white"/>
<path d="M1126.15 59.4148H1116.77V59.9883H1126.15V59.4148Z" fill="white"/>
<path d="M1114.93 27.4137H1127.94V41.1778H1114.93V27.4137ZM1127.39 27.9298H1115.42V40.5469H1127.39V27.9298Z" fill="white"/>
<path d="M1116.82 13.4202H1126.04V27.9298H1116.82V13.4202ZM1125.55 13.9937H1117.37V27.4136H1125.55V13.9937Z" fill="white"/>
<path d="M1121.7 6.10352e-05H1121.16V13.7068H1121.7V6.10352e-05Z" fill="white"/>
<path d="M1072.54 64.8632H1093.68V138.788H1072.54V64.8632ZM1093.14 65.3794H1073.03V138.157H1093.14V65.3794Z" fill="white"/>
<path d="M1089.56 72.204H1076.61V72.7775H1089.56V72.204Z" fill="white"/>
<path d="M1089.56 80.5774H1076.61V81.1509H1089.56V80.5774Z" fill="white"/>
<path d="M1089.56 88.9505H1076.61V89.524H1089.56V88.9505Z" fill="white"/>
<path d="M1089.56 97.3236H1076.61V97.8971H1089.56V97.3236Z" fill="white"/>
<path d="M1089.56 105.697H1076.61V106.27H1089.56V105.697Z" fill="white"/>
<path d="M1089.56 114.07H1076.61V114.643H1089.56V114.07Z" fill="white"/>
<path d="M1089.56 122.443H1076.61V123.017H1089.56V122.443Z" fill="white"/>
<path d="M1089.56 130.816H1076.61V131.39H1089.56V130.816Z" fill="white"/>
<path d="M1074.93 40.6039H1091.3V65.1499H1074.93V40.6039ZM1090.75 41.1774H1075.42V64.6337H1090.75V41.1774Z" fill="white"/>
<path d="M1087.77 45.8229H1078.4V46.3964H1087.77V45.8229Z" fill="white"/>
<path d="M1087.77 52.59H1078.4V53.1635H1087.77V52.59Z" fill="white"/>
<path d="M1087.77 59.4148H1078.4V59.9883H1087.77V59.4148Z" fill="white"/>
<path d="M1076.61 27.4136H1089.62V41.1777H1076.61V27.4136ZM1089.08 27.9298H1077.1V40.5468H1089.08V27.9298Z" fill="white"/>
<path d="M1078.45 13.4201H1087.66V27.9297H1078.45V13.4201ZM1087.18 13.9936H1078.99V27.4136H1087.18V13.9936Z" fill="white"/>
<path d="M1083.38 0H1082.84V13.7067H1083.38V0Z" fill="white"/>
<path d="M1093.14 74.6129H1111.35V82.7567H1093.14V74.6129ZM1110.86 75.1864H1093.68V82.2405H1110.86V75.1864Z" fill="white"/>
<path d="M1093.14 93.5383H1111.35V101.682H1093.14V93.5383ZM1110.86 94.0545H1093.68V101.109H1110.86V94.0545Z" fill="white"/>
<path d="M1027.18 88.9503H1062.03V138.73H1027.18V88.9503ZM1061.49 89.5238H1027.72V138.214H1061.49V89.5238Z" fill="white"/>
<path d="M1046.8 95.775H1056.01V105.525H1046.8V95.775ZM1055.53 96.2911H1047.34V104.951H1055.53V96.2911Z" fill="white"/>
<path d="M1033.19 95.7749H1042.41V105.524H1033.19V95.7749ZM1041.87 96.2911H1033.68V104.951H1041.87V96.2911Z" fill="white"/>
<path d="M1046.8 108.966H1056.01V118.715H1046.8V108.966ZM1055.53 109.539H1047.34V118.199H1055.53V109.539Z" fill="white"/>
<path d="M1033.19 108.966H1042.41V118.715H1033.19V108.966ZM1041.87 109.539H1033.68V118.199H1041.87V109.539Z" fill="white"/>
<path d="M1046.8 122.156H1056.01V131.906H1046.8V122.156ZM1055.53 122.73H1047.34V131.39H1055.53V122.73Z" fill="white"/>
<path d="M1033.19 122.156H1042.41V131.906H1033.19V122.156ZM1041.87 122.73H1033.68V131.39H1041.87V122.73Z" fill="white"/>
<path d="M657.217 88.9503H692.067V138.73H657.217V88.9503ZM691.525 89.5238H657.759V138.214H691.525V89.5238Z" fill="white"/>
<path d="M676.836 95.775H686.05V105.525H676.836V95.775ZM685.508 96.2911H677.324V104.951H685.508V96.2911Z" fill="white"/>
<path d="M663.179 95.7749H672.393V105.524H663.179V95.7749ZM671.905 96.2911H663.721V104.951H671.905V96.2911Z" fill="white"/>
<path d="M676.836 108.966H686.05V118.715H676.836V108.966ZM685.508 109.539H677.324V118.199H685.508V109.539Z" fill="white"/>
<path d="M663.179 108.966H672.393V118.715H663.179V108.966ZM671.905 109.539H663.721V118.199H671.905V109.539Z" fill="white"/>
<path d="M676.836 122.156H686.05V131.906H676.836V122.156ZM685.508 122.73H677.324V131.39H685.508V122.73Z" fill="white"/>
<path d="M663.179 122.156H672.393V131.906H663.179V122.156ZM671.905 122.73H663.721V131.39H671.905V122.73Z" fill="white"/>
<path d="M983.981 72.2039H1018.56V138.73H983.981V72.2039ZM1018.07 72.7774H984.523V138.214H1018.07V72.7774Z" fill="white"/>
<path d="M1012.22 81.5519H990.377V82.1254H1012.22V81.5519Z" fill="white"/>
<path d="M1012.22 91.0146H990.377V91.5881H1012.22V91.0146Z" fill="white"/>
<path d="M1012.22 100.478H990.377V101.051H1012.22V100.478Z" fill="white"/>
<path d="M1012.22 109.94H990.377V110.514H1012.22V109.94Z" fill="white"/>
<path d="M1012.22 119.346H990.377V119.919H1012.22V119.346Z" fill="white"/>
<path d="M1012.22 128.808H990.377V129.382H1012.22V128.808Z" fill="white"/>
<path d="M990.106 62.9704H1012.49V72.7199H990.106V62.9704ZM1011.95 63.5439H990.648V72.2038H1011.95V63.5439Z" fill="white"/>
<path d="M702.689 72.2039H737.268V138.73H702.689V72.2039ZM736.78 72.7774H703.231V138.214H736.78V72.7774Z" fill="white"/>
<path d="M730.928 81.5519H709.085V82.1254H730.928V81.5519Z" fill="white"/>
<path d="M730.928 91.0145H709.085V91.588H730.928V91.0145Z" fill="white"/>
<path d="M730.928 100.477H709.085V101.051H730.928V100.477Z" fill="white"/>
<path d="M730.928 109.94H709.085V110.514H730.928V109.94Z" fill="white"/>
<path d="M730.928 119.346H709.085V119.919H730.928V119.346Z" fill="white"/>
<path d="M730.928 128.808H709.085V129.382H730.928V128.808Z" fill="white"/>
<path d="M708.814 62.9703H731.198V72.7199H708.814V62.9703ZM730.656 63.5438H709.356V72.2037H730.656V63.5438Z" fill="white"/>
<path d="M878.673 72.2039H913.252V138.73H878.673V72.2039ZM912.764 72.7774H879.215V138.214H912.764V72.7774Z" fill="white"/>
<path d="M906.911 81.5519H885.069V82.1254H906.911V81.5519Z" fill="white"/>
<path d="M906.911 91.0145H885.069V91.588H906.911V91.0145Z" fill="white"/>
<path d="M906.911 100.477H885.069V101.051H906.911V100.477Z" fill="white"/>
<path d="M906.911 109.94H885.069V110.514H906.911V109.94Z" fill="white"/>
<path d="M906.911 119.346H885.069V119.919H906.911V119.346Z" fill="white"/>
<path d="M906.911 128.808H885.069V129.382H906.911V128.808Z" fill="white"/>
<path d="M884.798 62.9703H907.182V72.7199H884.798V62.9703ZM906.64 63.5438H885.34V72.2037H906.64V63.5438Z" fill="white"/>
<path d="M924.471 27.4137H972.871V138.731H924.471V27.4137ZM972.329 27.9298H924.959V138.157H972.329V27.9298Z" fill="white"/>
<path d="M948.916 27.7004H948.374V138.501H948.916V27.7004Z" fill="white"/>
<path d="M966.747 39.056H953.793V39.6295H966.747V39.056Z" fill="white"/>
<path d="M966.747 47.4292H953.793V48.0027H966.747V47.4292Z" fill="white"/>
<path d="M966.747 55.8023H953.793V56.3758H966.747V55.8023Z" fill="white"/>
<path d="M966.747 64.1754H953.793V64.7489H966.747V64.1754Z" fill="white"/>
<path d="M966.747 72.6061H953.793V73.1796H966.747V72.6061Z" fill="white"/>
<path d="M942.629 92.9653H929.675V93.5388H942.629V92.9653Z" fill="white"/>
<path d="M942.629 101.338H929.675V101.912H942.629V101.338Z" fill="white"/>
<path d="M942.629 109.711H929.675V110.285H942.629V109.711Z" fill="white"/>
<path d="M942.629 118.085H929.675V118.658H942.629V118.085Z" fill="white"/>
<path d="M942.629 126.458H929.675V127.031H942.629V126.458Z" fill="white"/>
<path d="M929.405 20.4169H967.019V27.9298H929.405V20.4169ZM966.477 20.9904H929.947V27.4137H966.477V20.9904Z" fill="white"/>
<path d="M791.955 100.478H869.513V138.73H791.955V100.478ZM868.971 100.994H792.442V138.157H868.971V100.994Z" fill="white"/>
<path d="M791.955 91.015H830.978V100.994H791.955V91.015ZM830.436 91.5885H792.442V100.478H830.436V91.5885Z" fill="white"/>
<path d="M830.978 100.765H830.436V138.501H830.978V100.765Z" fill="white"/>
<path d="M861.926 131.561H837.808V132.135H861.926V131.561Z" fill="white"/>
<path d="M861.926 126.457H837.808V127.031H861.926V126.457Z" fill="white"/>
<path d="M823.498 111.546H799.38V112.12H823.498V111.546Z" fill="white"/>
<path d="M823.498 106.442H799.38V107.016H823.498V106.442Z" fill="white"/>
<path d="M566 100.478H643.559V138.73H566V100.478ZM643.017 100.994H566.542V138.157H643.071V100.994H643.017Z" fill="white"/>
<path d="M566 91.0148H605.023V100.994H566V91.0148ZM604.535 91.5883H566.542V100.478H604.535V91.5883Z" fill="white"/>
<path d="M605.078 100.764H604.536V138.501H605.078V100.764Z" fill="white"/>
<path d="M635.972 131.561H611.853V132.135H635.972V131.561Z" fill="white"/>
<path d="M635.972 126.457H611.853V127.031H635.972V126.457Z" fill="white"/>
<path d="M597.599 111.546H573.48V112.12H597.599V111.546Z" fill="white"/>
<path d="M597.599 106.442H573.48V107.016H597.599V106.442Z" fill="white"/>
<path d="M747.893 88.9504H782.742V138.73H747.893V88.9504ZM782.201 89.5239H748.435V138.214H782.201V89.5239Z" fill="white"/>
<path d="M767.512 95.775H776.726V105.525H767.512V95.775ZM776.184 96.2912H768V104.951H776.184V96.2912Z" fill="white"/>
<path d="M753.854 95.775H763.068V105.525H753.854V95.775ZM762.581 96.2912H754.396V104.951H762.581V96.2912Z" fill="white"/>
<path d="M767.512 108.966H776.726V118.715H767.512V108.966ZM776.184 109.539H768V118.199H776.184V109.539Z" fill="white"/>
<path d="M753.854 108.966H763.068V118.715H753.854V108.966ZM762.581 109.539H754.396V118.199H762.581V109.539Z" fill="white"/>
<path d="M767.512 122.156H776.726V131.906H767.512V122.156ZM776.184 122.73H768V131.39H776.184V122.73Z" fill="white"/>
<path d="M753.854 122.156H763.068V131.906H753.854V122.156ZM762.581 122.73H754.396V131.39H762.581V122.73Z" fill="white"/>
<path d="M753.854 59.4724H776.726V89.4666H753.854V59.4724ZM776.184 60.0459H754.342V88.9504H776.184V60.0459Z" fill="white"/>
<path d="M758.246 39.0557H772.392V60.0459H758.246V39.0557ZM771.85 39.6292H758.733V59.4724H771.85V39.6292Z" fill="white"/>
<path d="M765.562 20.7036H765.02V39.3424H765.562V20.7036Z" fill="white"/>
</g>
</svg>
