<svg width="105" height="97" viewBox="0 0 105 97" fill="none" xmlns="http://www.w3.org/2000/svg">
<circle cx="74.2335" cy="74.2501" r="74.2304" fill="#EDF0FF"/>
<circle cx="74.2331" cy="74.25" r="60.6614" fill="#0C1239"/>
<g clip-path="url(#clip0_703_1620)">
<path d="M82 64.9998V76.9998H66V64.9998H70V60.9998H78V64.9998H82ZM72 64.9998H76V62.9998H72V64.9998ZM80 70.9998H78V72.9998H76V70.9998H72V72.9998H70V70.9998H68V74.9998H80V70.9998ZM80 66.9998H68V68.9998H80V66.9998ZM74.4531 58.9998C73.8906 58.3643 73.224 57.8748 72.4531 57.531C71.6823 57.1873 70.8646 57.0102 70 56.9998C69.1667 56.9998 68.3906 57.156 67.6719 57.4685C66.9531 57.781 66.3177 58.2081 65.7656 58.7498C65.2135 59.2914 64.7812 59.932 64.4688 60.6716C64.1562 61.4112 64 62.1873 64 62.9998C64 63.9581 63.7865 64.8591 63.3594 65.7029C62.9323 66.5466 62.3281 67.255 61.5469 67.8279C62.0156 68.0675 62.4531 68.3435 62.8594 68.656C63.2656 68.9685 63.6458 69.3227 64 69.7185V74.9998C64 74.1768 63.8438 73.4008 63.5312 72.6716C63.2188 71.9425 62.7917 71.307 62.25 70.7654C61.7083 70.2237 61.0677 69.7914 60.3281 69.4685C59.5885 69.1456 58.8125 68.9893 58 68.9998C57.1667 68.9998 56.3906 69.156 55.6719 69.4685C54.9531 69.781 54.3177 70.2081 53.7656 70.7498C53.2135 71.2914 52.7812 71.932 52.4688 72.6716C52.1562 73.4112 52 74.1873 52 74.9998H50C50 74.2393 50.1042 73.505 50.3125 72.7966C50.5208 72.0883 50.8177 71.4164 51.2031 70.781C51.5885 70.1456 52.0573 69.5831 52.6094 69.0935C53.1615 68.6039 53.776 68.182 54.4531 67.8279C53.6823 67.2654 53.0833 66.5623 52.6562 65.7185C52.2292 64.8748 52.0104 63.9685 52 62.9998C52 62.1768 52.1562 61.4008 52.4688 60.6716C52.7812 59.9425 53.2083 59.307 53.75 58.7654C54.2917 58.2237 54.9271 57.7914 55.6562 57.4685C56.3854 57.1456 57.1667 56.9893 58 56.9998C58.9583 56.9998 59.8594 57.2133 60.7031 57.6404C61.5469 58.0675 62.2552 58.6716 62.8281 59.4529C63.224 58.6716 63.7292 57.9737 64.3438 57.3591C64.9583 56.7445 65.6615 56.2341 66.4531 55.8279C65.6823 55.2654 65.0833 54.5623 64.6562 53.7185C64.2292 52.8748 64.0104 51.9685 64 50.9998C64 50.1768 64.1562 49.4008 64.4688 48.6716C64.7812 47.9425 65.2083 47.307 65.75 46.7654C66.2917 46.2237 66.9271 45.7914 67.6562 45.4685C68.3854 45.1456 69.1667 44.9893 70 44.9998C70.8229 44.9998 71.599 45.156 72.3281 45.4685C73.0573 45.781 73.6927 46.2081 74.2344 46.7498C74.776 47.2914 75.2083 47.932 75.5312 48.6716C75.8542 49.4112 76.0104 50.1873 76 50.9998C76 51.9581 75.7865 52.8591 75.3594 53.7029C74.9323 54.5466 74.3281 55.255 73.5469 55.8279C74.2552 56.182 74.8958 56.6248 75.4688 57.156C76.0417 57.6873 76.526 58.3018 76.9219 58.9998H74.4531ZM58 66.9998C58.5521 66.9998 59.0677 66.8956 59.5469 66.6873C60.026 66.4789 60.4531 66.1925 60.8281 65.8279C61.2031 65.4633 61.4896 65.0414 61.6875 64.5623C61.8854 64.0831 61.9896 63.5623 62 62.9998C62 62.4477 61.8958 61.932 61.6875 61.4529C61.4792 60.9737 61.1927 60.5466 60.8281 60.1716C60.4635 59.7966 60.0417 59.5102 59.5625 59.3123C59.0833 59.1143 58.5625 59.0102 58 58.9998C57.4479 58.9998 56.9323 59.1039 56.4531 59.3123C55.974 59.5206 55.5469 59.807 55.1719 60.1716C54.7969 60.5362 54.5104 60.9581 54.3125 61.4373C54.1146 61.9164 54.0104 62.4373 54 62.9998C54 63.5518 54.1042 64.0675 54.3125 64.5466C54.5208 65.0258 54.8073 65.4529 55.1719 65.8279C55.5365 66.2029 55.9583 66.4893 56.4375 66.6873C56.9167 66.8852 57.4375 66.9893 58 66.9998ZM66 50.9998C66 51.5518 66.1042 52.0675 66.3125 52.5466C66.5208 53.0258 66.8073 53.4529 67.1719 53.8279C67.5365 54.2029 67.9583 54.4893 68.4375 54.6873C68.9167 54.8852 69.4375 54.9893 70 54.9998C70.5521 54.9998 71.0677 54.8956 71.5469 54.6873C72.026 54.4789 72.4531 54.1925 72.8281 53.8279C73.2031 53.4633 73.4896 53.0414 73.6875 52.5623C73.8854 52.0831 73.9896 51.5623 74 50.9998C74 50.4477 73.8958 49.932 73.6875 49.4529C73.4792 48.9737 73.1927 48.5466 72.8281 48.1716C72.4635 47.7966 72.0417 47.5102 71.5625 47.3123C71.0833 47.1143 70.5625 47.0102 70 46.9998C69.4479 46.9998 68.9323 47.1039 68.4531 47.3123C67.974 47.5206 67.5469 47.807 67.1719 48.1716C66.7969 48.5362 66.5104 48.9581 66.3125 49.4373C66.1146 49.9164 66.0104 50.4373 66 50.9998Z" fill="white"/>
</g>
<defs>
<clipPath id="clip0_703_1620">
<rect width="32" height="32" fill="white" transform="translate(50 45)"/>
</clipPath>
</defs>
</svg>
