<svg width="105" height="97" viewBox="0 0 105 97" fill="none" xmlns="http://www.w3.org/2000/svg">
<circle cx="74.3979" cy="74.6859" r="74.2304" fill="#EDF0FF"/>
<circle cx="74.3975" cy="74.6858" r="60.6614" fill="#0C1239"/>
<path d="M66.9967 67.4895C62.8932 67.4895 54.7014 69.549 54.7014 73.6372V76.711H79.2921V73.6372C79.2921 69.549 71.1003 67.4895 66.9967 67.4895ZM57.7752 73.6372C58.1134 72.5306 62.8624 70.5633 66.9967 70.5633C71.1464 70.5633 75.9109 72.546 76.2182 73.6372H57.7752ZM60.4495 58.268H60.8491C60.8491 61.6646 63.6002 64.4157 66.9967 64.4157C70.3933 64.4157 73.1444 61.6646 73.1444 58.268H73.544C73.959 58.268 74.2971 57.9299 74.2971 57.5149V57.4842C74.2971 57.2844 74.2178 57.0929 74.0765 56.9517C73.9353 56.8104 73.7437 56.7311 73.544 56.7311H73.1444C73.1444 54.4565 71.8995 52.5046 70.0706 51.4287V52.8888C70.0706 53.3191 69.7325 53.6573 69.3021 53.6573C68.8718 53.6573 68.5337 53.3191 68.5337 52.8888V50.7986C68.0418 50.6756 67.5347 50.5834 66.9967 50.5834C66.4588 50.5834 65.9516 50.6756 65.4598 50.7986V52.8888C65.4598 53.3191 65.1217 53.6573 64.6914 53.6573C64.261 53.6573 63.9229 53.3191 63.9229 52.8888V51.4287C62.094 52.5046 60.8491 54.4565 60.8491 56.7311H60.4495C60.3506 56.7311 60.2527 56.7506 60.1613 56.7884C60.0699 56.8263 59.9869 56.8817 59.917 56.9517C59.847 57.0216 59.7916 57.1046 59.7537 57.196C59.7159 57.2874 59.6964 57.3853 59.6964 57.4842V57.5303C59.6964 57.9299 60.0345 58.268 60.4495 58.268ZM70.0706 58.268C70.0706 59.9586 68.6874 61.3418 66.9967 61.3418C65.3061 61.3418 63.9229 59.9586 63.9229 58.268H70.0706ZM86.9459 54.0107L88.3752 52.7351L87.2226 50.7371L85.3936 51.3365C85.1785 51.1675 84.9326 51.0291 84.6713 50.9215L84.2871 49.0465H81.9817L81.5974 50.9215C81.3362 51.0291 81.0903 51.1675 80.8597 51.3365L79.0462 50.7371L77.8935 52.7351L79.3228 54.0107C79.2921 54.272 79.2921 54.5487 79.3228 54.8099L77.8935 56.1163L79.0462 58.1143L80.8905 57.5303C81.0903 57.684 81.3208 57.8069 81.5513 57.9145L81.9817 59.8049H84.2871L84.702 57.9299C84.9479 57.8223 85.1631 57.6993 85.3783 57.5457L87.2072 58.1297L88.3599 56.1317L86.9305 54.8253C86.9767 54.5333 86.9613 54.272 86.9459 54.0107ZM83.1344 56.3469C82.6248 56.3469 82.1362 56.1445 81.7759 55.7842C81.4156 55.4239 81.2132 54.9352 81.2132 54.4257C81.2132 53.9162 81.4156 53.4275 81.7759 53.0673C82.1362 52.707 82.6248 52.5046 83.1344 52.5046C83.6439 52.5046 84.1325 52.707 84.4928 53.0673C84.8531 53.4275 85.0555 53.9162 85.0555 54.4257C85.0555 54.9352 84.8531 55.4239 84.4928 55.7842C84.1325 56.1445 83.6439 56.3469 83.1344 56.3469ZM82.9807 61.0191L81.6743 61.4494C81.5206 61.3265 81.3515 61.2343 81.1671 61.1574L80.8905 59.8049H79.246L78.9693 61.142C78.7849 61.2189 78.6005 61.3265 78.4468 61.4341L77.1558 61.0037L76.3258 62.433L77.3402 63.3398C77.3248 63.5396 77.3248 63.7241 77.3402 63.9085L76.3258 64.846L77.1558 66.2753L78.4775 65.8604C78.6312 65.968 78.7849 66.0602 78.954 66.137L79.2306 67.4895H80.8751L81.1671 66.1524C81.3362 66.0755 81.5052 65.9833 81.6589 65.8757L82.9653 66.2907L83.7952 64.8614L82.7809 63.9239C82.7962 63.7241 82.7962 63.5396 82.7809 63.3552L83.7952 62.4484L82.9807 61.0191ZM80.0605 65.0151C79.3074 65.0151 78.6927 64.4003 78.6927 63.6472C78.6927 62.8941 79.3074 62.2794 80.0605 62.2794C80.8136 62.2794 81.4284 62.8941 81.4284 63.6472C81.4284 64.4003 80.8136 65.0151 80.0605 65.0151Z" fill="white"/>
</svg>
