<svg width="" height="" viewBox="0 0 47 47" fill="none" xmlns="http://www.w3.org/2000/svg">
<g filter="url(#filter0_d_165_7502)">
<circle cx="20.2634" cy="20.2634" r="10.2634" fill="#E47B0E"/>
</g>
<path d="M18.8003 22.0251L18.2521 21.5038L17.5642 20.8497L16.9364 20.2527L16.3056 19.6529C16.0727 19.4314 15.7756 19.3637 15.47 19.4587C15.1814 19.547 14.995 19.7621 14.9351 20.0413L14.935 20.0421C14.8656 20.372 15.0165 20.618 15.2133 20.8051L15.2136 20.8054C16.1873 21.7275 17.161 22.6534 18.1306 23.5792C18.3283 23.7693 18.5464 23.8963 18.7918 23.8984C19.038 23.9005 19.2573 23.7765 19.4561 23.5875L22.36 20.8261L25.2639 18.0647L25.268 18.0608C25.3216 18.0099 25.3871 17.9476 25.4448 17.8745L25.4448 17.8745L25.4467 17.872C25.807 17.401 25.5375 16.7754 24.975 16.6492L24.9747 16.6491C24.6175 16.5695 24.3592 16.7303 24.1596 16.9201L24.1594 16.9203C23.2698 17.7681 22.3802 18.615 21.4911 19.4614L21.4905 19.462C20.6013 20.3085 19.7125 21.1546 18.8247 22.0007C18.8246 22.0008 18.8246 22.0009 18.8245 22.0009L18.8003 22.0251Z" fill="white" stroke="white" stroke-width="0.427643"/>
<defs>
<filter id="filter0_d_165_7502" x="0.591858" y="0.591858" width="46.1854" height="46.1854" filterUnits="userSpaceOnUse" color-interpolation-filters="sRGB">
<feFlood flood-opacity="0" result="BackgroundImageFix"/>
<feColorMatrix in="SourceAlpha" type="matrix" values="0 0 0 0 0 0 0 0 0 0 0 0 0 0 0 0 0 0 127 0" result="hardAlpha"/>
<feOffset dx="3.42114" dy="3.42114"/>
<feGaussianBlur stdDeviation="6.41464"/>
<feComposite in2="hardAlpha" operator="out"/>
<feColorMatrix type="matrix" values="0 0 0 0 0.996078 0 0 0 0 0.364706 0 0 0 0 0.0784314 0 0 0 0.4 0"/>
<feBlend mode="normal" in2="BackgroundImageFix" result="effect1_dropShadow_165_7502"/>
<feBlend mode="normal" in="SourceGraphic" in2="effect1_dropShadow_165_7502" result="shape"/>
</filter>
</defs>
</svg>
