<svg width="38" height="38" viewBox="0 0 38 38" fill="none" xmlns="http://www.w3.org/2000/svg">
<path d="M13.9967 23.4895C9.89318 23.4895 1.70142 25.549 1.70142 29.6372V32.711H26.2921V29.6372C26.2921 25.549 18.1003 23.4895 13.9967 23.4895ZM4.77525 29.6372C5.11337 28.5306 9.86244 26.5633 13.9967 26.5633C18.1464 26.5633 22.9109 28.546 23.2182 29.6372H4.77525ZM7.44948 14.268H7.84908C7.84908 17.6646 10.6002 20.4157 13.9967 20.4157C17.3933 20.4157 20.1444 17.6646 20.1444 14.268H20.544C20.959 14.268 21.2971 13.9299 21.2971 13.5149V13.4842C21.2971 13.2844 21.2178 13.0929 21.0765 12.9517C20.9353 12.8104 20.7437 12.7311 20.544 12.7311H20.1444C20.1444 10.4565 18.8995 8.50457 17.0706 7.42873V8.8888C17.0706 9.31914 16.7325 9.65726 16.3021 9.65726C15.8718 9.65726 15.5337 9.31914 15.5337 8.8888V6.79859C15.0418 6.67564 14.5347 6.58342 13.9967 6.58342C13.4588 6.58342 12.9516 6.67564 12.4598 6.79859V8.8888C12.4598 9.31914 12.1217 9.65726 11.6914 9.65726C11.261 9.65726 10.9229 9.31914 10.9229 8.8888V7.42873C9.09398 8.50457 7.84908 10.4565 7.84908 12.7311H7.44948C7.35058 12.7311 7.25266 12.7506 7.16129 12.7884C7.06992 12.8263 6.9869 12.8817 6.91697 12.9517C6.84704 13.0216 6.79157 13.1046 6.75372 13.196C6.71587 13.2874 6.69639 13.3853 6.69639 13.4842V13.5303C6.69639 13.9299 7.03451 14.268 7.44948 14.268ZM17.0706 14.268C17.0706 15.9586 15.6874 17.3418 13.9967 17.3418C12.3061 17.3418 10.9229 15.9586 10.9229 14.268H17.0706ZM33.9459 10.0107L35.3752 8.73511L34.2226 6.73712L32.3936 7.33651C32.1785 7.16745 31.9326 7.02913 31.6713 6.92155L31.2871 5.04651H28.9817L28.5974 6.92155C28.3362 7.02913 28.0903 7.16745 27.8597 7.33651L26.0462 6.73712L24.8935 8.73511L26.3228 10.0107C26.2921 10.272 26.2921 10.5487 26.3228 10.8099L24.8935 12.1163L26.0462 14.1143L27.8905 13.5303C28.0903 13.684 28.3208 13.8069 28.5513 13.9145L28.9817 15.8049H31.2871L31.702 13.9299C31.9479 13.8223 32.1631 13.6993 32.3783 13.5457L34.2072 14.1297L35.3599 12.1317L33.9305 10.8253C33.9767 10.5333 33.9613 10.272 33.9459 10.0107ZM30.1344 12.3469C29.6248 12.3469 29.1362 12.1445 28.7759 11.7842C28.4156 11.4239 28.2132 10.9352 28.2132 10.4257C28.2132 9.9162 28.4156 9.42755 28.7759 9.06726C29.1362 8.70698 29.6248 8.50457 30.1344 8.50457C30.6439 8.50457 31.1325 8.70698 31.4928 9.06726C31.8531 9.42755 32.0555 9.9162 32.0555 10.4257C32.0555 10.9352 31.8531 11.4239 31.4928 11.7842C31.1325 12.1445 30.6439 12.3469 30.1344 12.3469ZM29.9807 17.0191L28.6743 17.4494C28.5206 17.3265 28.3515 17.2343 28.1671 17.1574L27.8905 15.8049H26.246L25.9693 17.142C25.7849 17.2189 25.6005 17.3265 25.4468 17.4341L24.1558 17.0037L23.3258 18.433L24.3402 19.3398C24.3248 19.5396 24.3248 19.7241 24.3402 19.9085L23.3258 20.846L24.1558 22.2753L25.4775 21.8604C25.6312 21.968 25.7849 22.0602 25.954 22.137L26.2306 23.4895H27.8751L28.1671 22.1524C28.3362 22.0755 28.5052 21.9833 28.6589 21.8757L29.9653 22.2907L30.7952 20.8614L29.7809 19.9239C29.7962 19.7241 29.7962 19.5396 29.7809 19.3552L30.7952 18.4484L29.9807 17.0191ZM27.0605 21.0151C26.3074 21.0151 25.6927 20.4003 25.6927 19.6472C25.6927 18.8941 26.3074 18.2794 27.0605 18.2794C27.8136 18.2794 28.4284 18.8941 28.4284 19.6472C28.4284 20.4003 27.8136 21.0151 27.0605 21.0151Z" fill="white"/>
</svg>
