<svg width="21" height="11" viewBox="0 0 21 11" fill="none" xmlns="http://www.w3.org/2000/svg">
<path d="M0.916275 6.34869C0.916509 6.34892 0.916706 6.3492 0.916978 6.34943L5.0031 10.4158C5.30921 10.7205 5.80433 10.7193 6.10904 10.4132C6.41371 10.1071 6.41254 9.61194 6.10642 9.30727L3.363 6.57715L19.9242 6.57715C20.3561 6.57715 20.7062 6.22705 20.7062 5.79515C20.7062 5.36325 20.3561 5.01314 19.9242 5.01314L3.36304 5.01315L6.10638 2.28302C6.4125 1.97835 6.41367 1.48323 6.109 1.17711C5.80429 0.870921 5.30913 0.869866 5.00305 1.17446L0.91694 5.24087C0.916706 5.2411 0.916509 5.24137 0.916236 5.24161C0.609964 5.54729 0.610942 6.04402 0.916275 6.34869Z" fill="white"/>
</svg>
