<svg width="118" height="26" viewBox="0 0 118 26" fill="none" xmlns="http://www.w3.org/2000/svg">
<rect x="0.868164" y="0.539551" width="116.27" height="25.4605" rx="1.69737" fill="#E47B0E"/>
<path d="M16.8525 13.1627C17.046 13.1932 17.2217 13.2722 17.3795 13.3995C17.5425 13.5268 17.6698 13.6846 17.7614 13.873C17.8582 14.0614 17.9066 14.2626 17.9066 14.4764C17.9066 14.7463 17.8378 14.9908 17.7003 15.2097C17.5628 15.4236 17.3617 15.5942 17.0969 15.7215C16.8372 15.8437 16.5291 15.9048 16.1727 15.9048H14.1868V10.581H16.0963C16.4579 10.581 16.7659 10.6421 17.0205 10.7643C17.2751 10.8814 17.4661 11.0418 17.5934 11.2455C17.7207 11.4492 17.7843 11.6783 17.7843 11.9329C17.7843 12.2487 17.6978 12.5109 17.5246 12.7197C17.3566 12.9234 17.1326 13.071 16.8525 13.1627ZM14.8818 12.8801H16.0505C16.3764 12.8801 16.6284 12.8037 16.8067 12.6509C16.9849 12.4982 17.074 12.2868 17.074 12.017C17.074 11.7471 16.9849 11.5358 16.8067 11.383C16.6284 11.2302 16.3713 11.1539 16.0352 11.1539H14.8818V12.8801ZM16.1116 15.3319C16.4579 15.3319 16.7277 15.2504 16.9212 15.0875C17.1147 14.9246 17.2115 14.698 17.2115 14.4077C17.2115 14.1124 17.1096 13.8807 16.906 13.7126C16.7023 13.5395 16.4298 13.4529 16.0887 13.4529H14.8818V15.3319H16.1116ZM18.6114 13.7967C18.6114 13.3689 18.698 12.9946 18.8711 12.6738C19.0442 12.3479 19.281 12.0959 19.5815 11.9177C19.887 11.7394 20.2256 11.6503 20.5973 11.6503C20.964 11.6503 21.2822 11.7293 21.5521 11.8871C21.822 12.045 22.0231 12.2436 22.1555 12.4829V11.7191H22.8582V15.9048H22.1555V15.1257C22.018 15.3701 21.8118 15.5738 21.5368 15.7367C21.2669 15.8946 20.9512 15.9735 20.5897 15.9735C20.218 15.9735 19.8819 15.8819 19.5815 15.6986C19.281 15.5152 19.0442 15.2581 18.8711 14.9271C18.698 14.5961 18.6114 14.2193 18.6114 13.7967ZM22.1555 13.8043C22.1555 13.4886 22.0919 13.2136 21.9646 12.9794C21.8373 12.7451 21.6641 12.5669 21.4452 12.4447C21.2313 12.3174 20.9945 12.2537 20.7348 12.2537C20.4751 12.2537 20.2383 12.3149 20.0245 12.4371C19.8106 12.5593 19.64 12.7375 19.5127 12.9717C19.3854 13.206 19.3218 13.4809 19.3218 13.7967C19.3218 14.1175 19.3854 14.3975 19.5127 14.6369C19.64 14.8711 19.8106 15.0519 20.0245 15.1792C20.2383 15.3014 20.4751 15.3625 20.7348 15.3625C20.9945 15.3625 21.2313 15.3014 21.4452 15.1792C21.6641 15.0519 21.8373 14.8711 21.9646 14.6369C22.0919 14.3975 22.1555 14.12 22.1555 13.8043ZM23.7731 13.8043C23.7731 13.3715 23.8597 12.9946 24.0328 12.6738C24.206 12.3479 24.4453 12.0959 24.7508 11.9177C25.0614 11.7394 25.4153 11.6503 25.8125 11.6503C26.3268 11.6503 26.7495 11.7751 27.0805 12.0246C27.4165 12.2741 27.638 12.6204 27.745 13.0634H26.9964C26.9252 12.8088 26.7851 12.6076 26.5763 12.46C26.3727 12.3123 26.1181 12.2385 25.8125 12.2385C25.4153 12.2385 25.0945 12.376 24.8501 12.6509C24.6057 12.9208 24.4835 13.3053 24.4835 13.8043C24.4835 14.3084 24.6057 14.698 24.8501 14.9729C25.0945 15.2479 25.4153 15.3854 25.8125 15.3854C26.1181 15.3854 26.3727 15.3141 26.5763 15.1715C26.78 15.0289 26.9201 14.8253 26.9964 14.5605H27.745C27.633 14.9882 27.4089 15.3319 27.0728 15.5916C26.7367 15.8462 26.3166 15.9735 25.8125 15.9735C25.4153 15.9735 25.0614 15.8844 24.7508 15.7062C24.4453 15.528 24.206 15.2759 24.0328 14.95C23.8597 14.6241 23.7731 14.2422 23.7731 13.8043ZM31.0097 15.9048L29.3675 14.0564V15.9048H28.6724V10.2525H29.3675V13.5751L30.9791 11.7191H31.9492L29.9785 13.8043L31.9568 15.9048H31.0097ZM35.4876 12.2919V14.7591C35.4876 14.9627 35.5308 15.1079 35.6174 15.1944C35.704 15.2759 35.8542 15.3166 36.0681 15.3166H36.5798V15.9048H35.9535C35.5665 15.9048 35.2762 15.8157 35.0827 15.6374C34.8892 15.4592 34.7925 15.1664 34.7925 14.7591V12.2919H34.2502V11.7191H34.7925V10.665H35.4876V11.7191H36.5798V12.2919H35.4876ZM39.2475 15.9735C38.8554 15.9735 38.499 15.8844 38.1782 15.7062C37.8625 15.528 37.6129 15.2759 37.4296 14.95C37.2514 14.619 37.1623 14.2371 37.1623 13.8043C37.1623 13.3766 37.2539 12.9997 37.4373 12.6738C37.6257 12.3429 37.8803 12.0908 38.2011 11.9177C38.5219 11.7394 38.8809 11.6503 39.2781 11.6503C39.6752 11.6503 40.0342 11.7394 40.355 11.9177C40.6758 12.0908 40.9279 12.3403 41.1112 12.6662C41.2996 12.9921 41.3938 13.3715 41.3938 13.8043C41.3938 14.2371 41.2971 14.619 41.1036 14.95C40.9152 15.2759 40.658 15.528 40.3321 15.7062C40.0062 15.8844 39.6447 15.9735 39.2475 15.9735ZM39.2475 15.3625C39.497 15.3625 39.7313 15.3039 39.9502 15.1868C40.1692 15.0697 40.3449 14.894 40.4773 14.6598C40.6147 14.4255 40.6835 14.1404 40.6835 13.8043C40.6835 13.4682 40.6173 13.1831 40.4849 12.9488C40.3525 12.7146 40.1794 12.5414 39.9655 12.4294C39.7516 12.3123 39.5199 12.2537 39.2704 12.2537C39.0158 12.2537 38.7816 12.3123 38.5677 12.4294C38.3589 12.5414 38.1909 12.7146 38.0636 12.9488C37.9363 13.1831 37.8726 13.4682 37.8726 13.8043C37.8726 14.1455 37.9337 14.4332 38.056 14.6674C38.1833 14.9016 38.3513 15.0773 38.5601 15.1944C38.7689 15.3065 38.998 15.3625 39.2475 15.3625ZM48.4458 10.581V15.9048H47.7507V13.4911H45.0391V15.9048H44.3441V10.581H45.0391V12.9183H47.7507V10.581H48.4458ZM51.4581 15.9735C51.066 15.9735 50.7096 15.8844 50.3888 15.7062C50.0731 15.528 49.8236 15.2759 49.6402 14.95C49.462 14.619 49.3729 14.2371 49.3729 13.8043C49.3729 13.3766 49.4646 12.9997 49.6479 12.6738C49.8363 12.3429 50.0909 12.0908 50.4117 11.9177C50.7325 11.7394 51.0915 11.6503 51.4887 11.6503C51.8859 11.6503 52.2448 11.7394 52.5657 11.9177C52.8865 12.0908 53.1385 12.3403 53.3218 12.6662C53.5102 12.9921 53.6044 13.3715 53.6044 13.8043C53.6044 14.2371 53.5077 14.619 53.3142 14.95C53.1258 15.2759 52.8686 15.528 52.5427 15.7062C52.2168 15.8844 51.8553 15.9735 51.4581 15.9735ZM51.4581 15.3625C51.7076 15.3625 51.9419 15.3039 52.1608 15.1868C52.3798 15.0697 52.5555 14.894 52.6879 14.6598C52.8253 14.4255 52.8941 14.1404 52.8941 13.8043C52.8941 13.4682 52.8279 13.1831 52.6955 12.9488C52.5631 12.7146 52.39 12.5414 52.1761 12.4294C51.9622 12.3123 51.7305 12.2537 51.481 12.2537C51.2264 12.2537 50.9922 12.3123 50.7783 12.4294C50.5695 12.5414 50.4015 12.7146 50.2742 12.9488C50.1469 13.1831 50.0832 13.4682 50.0832 13.8043C50.0832 14.1455 50.1444 14.4332 50.2666 14.6674C50.3939 14.9016 50.5619 15.0773 50.7707 15.1944C50.9795 15.3065 51.2086 15.3625 51.4581 15.3625ZM59.5519 11.6427C59.8778 11.6427 60.168 11.7114 60.4226 11.8489C60.6772 11.9813 60.8784 12.1825 61.026 12.4523C61.1737 12.7222 61.2476 13.0507 61.2476 13.4377V15.9048H60.5601V13.537C60.5601 13.1194 60.4557 12.8011 60.247 12.5822C60.0433 12.3581 59.7658 12.2461 59.4144 12.2461C59.0529 12.2461 58.7652 12.3632 58.5513 12.5975C58.3374 12.8266 58.2305 13.1601 58.2305 13.5981V15.9048H57.543V13.537C57.543 13.1194 57.4387 12.8011 57.2299 12.5822C57.0262 12.3581 56.7487 12.2461 56.3973 12.2461C56.0358 12.2461 55.7481 12.3632 55.5342 12.5975C55.3203 12.8266 55.2134 13.1601 55.2134 13.5981V15.9048H54.5183V11.7191H55.2134V12.3225C55.3509 12.1035 55.5342 11.9355 55.7634 11.8184C55.9976 11.7013 56.2547 11.6427 56.5348 11.6427C56.8862 11.6427 57.1968 11.7216 57.4667 11.8795C57.7365 12.0373 57.9377 12.269 58.0701 12.5745C58.1872 12.2792 58.3807 12.0501 58.6506 11.8871C58.9205 11.7242 59.2209 11.6427 59.5519 11.6427ZM66.2068 13.6515C66.2068 13.7839 66.1992 13.924 66.1839 14.0716H62.8384C62.8638 14.4841 63.0039 14.8074 63.2585 15.0417C63.5182 15.2708 63.8313 15.3854 64.198 15.3854C64.4984 15.3854 64.7479 15.3166 64.9465 15.1792C65.1502 15.0366 65.2928 14.8482 65.3742 14.6139H66.1228C66.0108 15.0162 65.7867 15.3447 65.4506 15.5993C65.1145 15.8488 64.697 15.9735 64.198 15.9735C63.8008 15.9735 63.4443 15.8844 63.1286 15.7062C62.818 15.528 62.5736 15.2759 62.3954 14.95C62.2171 14.619 62.128 14.2371 62.128 13.8043C62.128 13.3715 62.2146 12.9921 62.3877 12.6662C62.5609 12.3403 62.8027 12.0908 63.1134 11.9177C63.4291 11.7394 63.7906 11.6503 64.198 11.6503C64.5952 11.6503 64.9465 11.7369 65.252 11.91C65.5576 12.0832 65.7918 12.3225 65.9547 12.628C66.1228 12.9284 66.2068 13.2696 66.2068 13.6515ZM65.4888 13.5064C65.4888 13.2416 65.4303 13.015 65.3131 12.8266C65.196 12.6331 65.0356 12.488 64.8319 12.3912C64.6333 12.2894 64.4118 12.2385 64.1674 12.2385C63.8161 12.2385 63.5156 12.3505 63.2661 12.5745C63.0217 12.7986 62.8817 13.1092 62.846 13.5064H65.4888ZM69.8557 12.4905C69.9932 12.2512 70.1969 12.0526 70.4668 11.8948C70.7417 11.7318 71.06 11.6503 71.4215 11.6503C71.7932 11.6503 72.1293 11.7394 72.4298 11.9177C72.7353 12.0959 72.9746 12.3479 73.1477 12.6738C73.3209 12.9946 73.4074 13.3689 73.4074 13.7967C73.4074 14.2193 73.3209 14.5961 73.1477 14.9271C72.9746 15.2581 72.7353 15.5152 72.4298 15.6986C72.1293 15.8819 71.7932 15.9735 71.4215 15.9735C71.0651 15.9735 70.7494 15.8946 70.4744 15.7367C70.2045 15.5738 69.9983 15.3727 69.8557 15.1333V17.8907H69.1606V11.7191H69.8557V12.4905ZM72.6971 13.7967C72.6971 13.4809 72.6334 13.206 72.5061 12.9717C72.3788 12.7375 72.2057 12.5593 71.9867 12.4371C71.7729 12.3149 71.5361 12.2537 71.2764 12.2537C71.0218 12.2537 70.785 12.3174 70.566 12.4447C70.3522 12.5669 70.179 12.7477 70.0467 12.987C69.9193 13.2212 69.8557 13.4937 69.8557 13.8043C69.8557 14.12 69.9193 14.3975 70.0467 14.6369C70.179 14.8711 70.3522 15.0519 70.566 15.1792C70.785 15.3014 71.0218 15.3625 71.2764 15.3625C71.5361 15.3625 71.7729 15.3014 71.9867 15.1792C72.2057 15.0519 72.3788 14.8711 72.5061 14.6369C72.6334 14.3975 72.6971 14.1175 72.6971 13.7967ZM74.0627 13.7967C74.0627 13.3689 74.1492 12.9946 74.3223 12.6738C74.4955 12.3479 74.7323 12.0959 75.0327 11.9177C75.3382 11.7394 75.6768 11.6503 76.0486 11.6503C76.4152 11.6503 76.7335 11.7293 77.0033 11.8871C77.2732 12.045 77.4744 12.2436 77.6068 12.4829V11.7191H78.3095V15.9048H77.6068V15.1257C77.4693 15.3701 77.263 15.5738 76.9881 15.7367C76.7182 15.8946 76.4025 15.9735 76.0409 15.9735C75.6692 15.9735 75.3331 15.8819 75.0327 15.6986C74.7323 15.5152 74.4955 15.2581 74.3223 14.9271C74.1492 14.5961 74.0627 14.2193 74.0627 13.7967ZM77.6068 13.8043C77.6068 13.4886 77.5431 13.2136 77.4158 12.9794C77.2885 12.7451 77.1154 12.5669 76.8964 12.4447C76.6825 12.3174 76.4458 12.2537 76.1861 12.2537C75.9264 12.2537 75.6896 12.3149 75.4757 12.4371C75.2618 12.5593 75.0913 12.7375 74.964 12.9717C74.8367 13.206 74.773 13.4809 74.773 13.7967C74.773 14.1175 74.8367 14.3975 74.964 14.6369C75.0913 14.8711 75.2618 15.0519 75.4757 15.1792C75.6896 15.3014 75.9264 15.3625 76.1861 15.3625C76.4458 15.3625 76.6825 15.3014 76.8964 15.1792C77.1154 15.0519 77.2885 14.8711 77.4158 14.6369C77.5431 14.3975 77.6068 14.12 77.6068 13.8043ZM81.2103 11.6503C81.5718 11.6503 81.8875 11.7293 82.1574 11.8871C82.4324 12.045 82.6361 12.2436 82.7685 12.4829V11.7191H83.4712V15.9964C83.4712 16.3784 83.3897 16.717 83.2268 17.0123C83.0638 17.3128 82.8296 17.547 82.5241 17.715C82.2236 17.8831 81.8723 17.9671 81.47 17.9671C80.92 17.9671 80.4618 17.8372 80.0951 17.5775C79.7285 17.3178 79.5121 16.9639 79.4459 16.5158H80.1333C80.2097 16.7704 80.3676 16.9741 80.6069 17.1269C80.8462 17.2847 81.1339 17.3637 81.47 17.3637C81.8519 17.3637 82.1625 17.244 82.4018 17.0047C82.6463 16.7654 82.7685 16.4293 82.7685 15.9964V15.1181C82.631 15.3625 82.4273 15.5662 82.1574 15.7291C81.8875 15.8921 81.5718 15.9735 81.2103 15.9735C80.8386 15.9735 80.4999 15.8819 80.1944 15.6986C79.894 15.5152 79.6572 15.2581 79.4841 14.9271C79.3109 14.5961 79.2244 14.2193 79.2244 13.7967C79.2244 13.3689 79.3109 12.9946 79.4841 12.6738C79.6572 12.3479 79.894 12.0959 80.1944 11.9177C80.4999 11.7394 80.8386 11.6503 81.2103 11.6503ZM82.7685 13.8043C82.7685 13.4886 82.7048 13.2136 82.5775 12.9794C82.4502 12.7451 82.2771 12.5669 82.0581 12.4447C81.8443 12.3174 81.6075 12.2537 81.3478 12.2537C81.0881 12.2537 80.8513 12.3149 80.6374 12.4371C80.4236 12.5593 80.253 12.7375 80.1257 12.9717C79.9984 13.206 79.9347 13.4809 79.9347 13.7967C79.9347 14.1175 79.9984 14.3975 80.1257 14.6369C80.253 14.8711 80.4236 15.0519 80.6374 15.1792C80.8513 15.3014 81.0881 15.3625 81.3478 15.3625C81.6075 15.3625 81.8443 15.3014 82.0581 15.1792C82.2771 15.0519 82.4502 14.8711 82.5775 14.6369C82.7048 14.3975 82.7685 14.12 82.7685 13.8043ZM88.4649 13.6515C88.4649 13.7839 88.4572 13.924 88.442 14.0716H85.0964C85.1219 14.4841 85.2619 14.8074 85.5165 15.0417C85.7762 15.2708 86.0894 15.3854 86.456 15.3854C86.7565 15.3854 87.006 15.3166 87.2046 15.1792C87.4083 15.0366 87.5508 14.8482 87.6323 14.6139H88.3809C88.2688 15.0162 88.0448 15.3447 87.7087 15.5993C87.3726 15.8488 86.9551 15.9735 86.456 15.9735C86.0589 15.9735 85.7024 15.8844 85.3867 15.7062C85.0761 15.528 84.8317 15.2759 84.6534 14.95C84.4752 14.619 84.3861 14.2371 84.3861 13.8043C84.3861 13.3715 84.4727 12.9921 84.6458 12.6662C84.8189 12.3403 85.0608 12.0908 85.3714 11.9177C85.6871 11.7394 86.0487 11.6503 86.456 11.6503C86.8532 11.6503 87.2046 11.7369 87.5101 11.91C87.8156 12.0832 88.0499 12.3225 88.2128 12.628C88.3809 12.9284 88.4649 13.2696 88.4649 13.6515ZM87.7469 13.5064C87.7469 13.2416 87.6883 13.015 87.5712 12.8266C87.4541 12.6331 87.2937 12.488 87.09 12.3912C86.8914 12.2894 86.6699 12.2385 86.4255 12.2385C86.0741 12.2385 85.7737 12.3505 85.5242 12.5745C85.2798 12.7986 85.1397 13.1092 85.1041 13.5064H87.7469Z" fill="white"/>
<path d="M103.212 13.7053C103.147 13.7832 103.108 13.8293 103.066 13.8718C102.525 14.46 101.981 15.0483 101.443 15.6401C101.381 15.7074 101.326 15.7995 101.299 15.8881C101.257 16.044 101.313 16.1822 101.436 16.2708C101.567 16.3665 101.704 16.3629 101.831 16.2673C101.87 16.2389 101.906 16.1964 101.938 16.161C102.704 15.3318 103.467 14.499 104.229 13.6698C104.467 13.4112 104.467 13.2375 104.229 12.9788C103.467 12.1461 102.701 11.3169 101.938 10.4877C101.909 10.4558 101.88 10.4204 101.844 10.3885C101.704 10.2645 101.508 10.2716 101.381 10.3991C101.247 10.5373 101.228 10.7535 101.348 10.9094C101.417 11.0015 101.498 11.0795 101.576 11.1645C102.111 11.7457 102.645 12.3233 103.216 12.9434C103.111 12.9434 103.053 12.9434 102.991 12.9434C101.075 12.9434 99.1584 12.9434 97.2389 12.9434C96.926 12.9434 96.7663 13.071 96.7696 13.3296C96.7728 13.5812 96.9293 13.7053 97.2552 13.7053C99.1681 13.7053 101.078 13.7053 102.991 13.7053C103.053 13.7053 103.115 13.7053 103.212 13.7053Z" fill="white"/>
</svg>
