<svg width="105" height="97" viewBox="0 0 105 97" fill="none" xmlns="http://www.w3.org/2000/svg">
<circle cx="74.2335" cy="74.2501" r="74.2304" fill="#EDF0FF"/>
<circle cx="74.2331" cy="74.25" r="60.6614" fill="#0C1239"/>
<path d="M64.1875 65.25H59.3125C58.666 65.25 58.046 65.5068 57.5889 65.9639C57.1318 66.421 56.875 67.041 56.875 67.6875V69.3125H58.5V67.6875C58.5 67.472 58.5856 67.2654 58.738 67.113C58.8903 66.9606 59.097 66.875 59.3125 66.875H64.1875C64.403 66.875 64.6097 66.9606 64.762 67.113C64.9144 67.2654 65 67.472 65 67.6875V69.3125H66.625V67.6875C66.625 67.041 66.3682 66.421 65.9111 65.9639C65.454 65.5068 64.834 65.25 64.1875 65.25ZM61.75 64.4375C62.3928 64.4375 63.0211 64.2469 63.5556 63.8898C64.0901 63.5327 64.5066 63.0251 64.7526 62.4312C64.9986 61.8374 65.063 61.1839 64.9376 60.5535C64.8122 59.923 64.5026 59.3439 64.0481 58.8894C63.5936 58.4349 63.0145 58.1254 62.384 57.9999C61.7536 57.8745 61.1001 57.9389 60.5063 58.1849C59.9124 58.4309 59.4048 58.8474 59.0477 59.3819C58.6906 59.9164 58.5 60.5447 58.5 61.1875C58.5 62.0495 58.8424 62.8761 59.4519 63.4856C60.0614 64.0951 60.888 64.4375 61.75 64.4375ZM61.75 59.5625C62.0714 59.5625 62.3856 59.6578 62.6528 59.8364C62.92 60.0149 63.1283 60.2687 63.2513 60.5656C63.3743 60.8626 63.4065 61.1893 63.3438 61.5045C63.2811 61.8197 63.1263 62.1093 62.899 62.3366C62.6718 62.5638 62.3822 62.7186 62.067 62.7813C61.7518 62.844 61.4251 62.8118 61.1281 62.6888C60.8312 62.5658 60.5774 62.3575 60.3989 62.0903C60.2203 61.8231 60.125 61.5089 60.125 61.1875C60.125 60.7565 60.2962 60.3432 60.601 60.0385C60.9057 59.7337 61.319 59.5625 61.75 59.5625Z" fill="white"/>
<path d="M74.75 64.4375V71.75H55.25V55.5H65V53.875H55.25C54.819 53.875 54.4057 54.0462 54.101 54.351C53.7962 54.6557 53.625 55.069 53.625 55.5V71.75C53.625 72.181 53.7962 72.5943 54.101 72.899C54.4057 73.2038 54.819 73.375 55.25 73.375H74.75C75.181 73.375 75.5943 73.2038 75.899 72.899C76.2038 72.5943 76.375 72.181 76.375 71.75V64.4375H74.75Z" fill="white"/>
<path d="M68.25 64.4375H73.125V66.0625H68.25V64.4375ZM69.875 67.6875H73.125V69.3125H69.875V67.6875ZM78 57.125V55.5H76.2929C76.1882 54.9914 75.9862 54.5078 75.6982 54.0757L76.9088 52.8651L75.7599 51.7162L74.5493 52.9268C74.1172 52.6388 73.6336 52.4368 73.125 52.3321V50.625H71.5V52.3321C70.9914 52.4368 70.5078 52.6388 70.0757 52.9268L68.8651 51.7162L67.7162 52.8651L68.9268 54.0757C68.6388 54.5078 68.4368 54.9914 68.3321 55.5H66.625V57.125H68.3321C68.4368 57.6336 68.6388 58.1172 68.9268 58.5493L67.7162 59.7599L68.8651 60.9088L70.0757 59.6982C70.5078 59.9862 70.9914 60.1882 71.5 60.2929V62H73.125V60.2929C73.6336 60.1882 74.1172 59.9862 74.5493 59.6982L75.7599 60.9088L76.9088 59.7599L75.6982 58.5493C75.9862 58.1172 76.1882 57.6336 76.2929 57.125H78ZM72.3125 58.75C71.8304 58.75 71.3591 58.607 70.9583 58.3392C70.5575 58.0714 70.245 57.6907 70.0605 57.2453C69.8761 56.7999 69.8278 56.3098 69.9218 55.837C70.0159 55.3641 70.248 54.9298 70.5889 54.5889C70.9298 54.248 71.3641 54.0159 71.837 53.9218C72.3098 53.8278 72.7999 53.8761 73.2453 54.0605C73.6907 54.245 74.0714 54.5575 74.3392 54.9583C74.607 55.3591 74.75 55.8304 74.75 56.3125C74.7494 56.9588 74.4923 57.5784 74.0354 58.0354C73.5784 58.4923 72.9588 58.7494 72.3125 58.75Z" fill="white"/>
</svg>
