<svg width="105" height="97" viewBox="0 0 105 97" fill="none" xmlns="http://www.w3.org/2000/svg">
<circle cx="74.5119" cy="74.6859" r="74.2304" fill="#EDF0FF"/>
<circle cx="74.5115" cy="74.6858" r="60.6614" fill="#0C1239"/>
<g clip-path="url(#clip0_337_756)">
<path d="M90.4427 63.0254H90.439C90.439 62.9998 90.4427 62.9741 90.4427 62.9485C90.4427 59.4503 87.6076 56.6115 84.1058 56.6115C83.6552 56.6115 83.2157 56.6592 82.7944 56.7507C81.538 53.6958 78.5381 51.542 75.0289 51.542C72.3953 51.542 70.0473 52.7581 68.5089 54.6555C67.4875 54.1361 66.358 53.865 65.2122 53.8643C61.421 53.8643 58.3075 56.7507 57.9449 60.4467C53.824 60.6664 50.5164 64.0437 50.4614 68.2378C50.4028 72.6041 53.9009 76.1938 58.2672 76.2487C58.6079 76.2524 58.9375 76.2304 59.2672 76.1901C60.9558 79.7505 64.5785 82.212 68.7799 82.212C71.3147 82.212 73.637 81.3146 75.4538 79.8238C76.8421 80.8531 78.5564 81.4684 80.4172 81.4684C84.234 81.4684 87.4464 78.908 88.4464 75.4099C89.0764 75.6187 89.7467 75.7359 90.4464 75.7359C93.9555 75.7359 96.8016 72.8898 96.8016 69.3806C96.798 65.8715 93.9555 63.0254 90.4427 63.0254Z" fill="#F4F6FF"/>
<path d="M94.1789 64.2378C95.6185 65.692 94.6002 69.0253 93.6112 70.1132C91.6625 72.2487 88.0874 71.7505 86.6515 71.4428C86.2633 71.3586 86.201 71.3879 86.0728 71.4648C85.9592 71.5344 85.908 71.6443 85.7834 71.9044C85.3219 72.9007 84.1278 74.8311 81.6076 75.6076C78.9813 76.4172 76.5051 75.1827 75.3476 74.4465C74.9081 74.1681 74.8898 74.1608 74.692 74.1644C74.4905 74.1681 74.2927 74.3146 74.0546 74.5014C73.007 75.3256 70.6151 76.7798 66.9265 76.5673C63.3111 76.3586 61.2415 74.1315 60.5309 72.985C60.3954 72.7652 60.2489 72.582 60.0804 72.5637C59.8862 72.5454 59.6701 72.7432 59.509 72.9044C57.9705 74.4025 53.1281 74.8531 51.5237 72.3C53.1574 74.919 55.6811 76.2157 58.2709 76.2487C58.6115 76.2523 58.9412 76.2303 59.2709 76.1901C60.9595 79.7505 64.5822 82.212 68.7836 82.212C71.3184 82.212 73.6407 81.3145 75.4575 79.8237C76.8458 80.853 78.56 81.4684 80.4208 81.4684C84.2376 81.4684 87.4501 78.908 88.4501 75.4098C89.0801 75.6186 89.7504 75.7358 90.45 75.7358C93.9592 75.7358 96.8053 72.8897 96.8053 69.3806C96.798 67.5125 95.8602 65.4026 94.1789 64.2378Z" fill="#636A93"/>
</g>
<defs>
<clipPath id="clip0_337_756">
<rect width="46.886" height="46.886" fill="white" transform="translate(50.2783 43.4358)"/>
</clipPath>
</defs>
</svg>
