<svg width="106" height="97" viewBox="0 0 106 97" fill="none" xmlns="http://www.w3.org/2000/svg">
<circle cx="74.955" cy="74.6859" r="74.2304" fill="#EDF0FF"/>
<circle cx="74.9546" cy="74.6858" r="60.6614" fill="#0C1239"/>
<path fill-rule="evenodd" clip-rule="evenodd" d="M89.962 66.8788C89.962 74.4992 83.7848 80.6763 76.1644 80.6763C68.5441 80.6763 62.3669 74.4992 62.3669 66.8788C62.3669 59.2584 68.5441 53.0813 76.1644 53.0813C83.7848 53.0813 89.962 59.2584 89.962 66.8788ZM78.2175 59.2157C78.4824 59.2868 78.7081 59.4602 78.8452 59.6977C78.9824 59.9351 79.0196 60.2174 78.9488 60.4823L75.378 73.8107C75.3427 73.9419 75.282 74.065 75.1992 74.1728C75.1164 74.2806 75.0132 74.371 74.8954 74.4389C74.6577 74.5761 74.3751 74.6131 74.11 74.5419C73.8449 74.4708 73.6189 74.2972 73.4818 74.0594C73.3446 73.8216 73.3076 73.5391 73.3787 73.2739L76.9495 59.9469C76.9847 59.8155 77.0455 59.6923 77.1284 59.5844C77.2113 59.4765 77.3146 59.386 77.4325 59.318C77.5504 59.2501 77.6806 59.2061 77.8155 59.1885C77.9505 59.171 78.0875 59.1802 78.2189 59.2157H78.2175ZM80.2623 62.0083C80.4563 61.8145 80.7193 61.7057 80.9936 61.7057C81.2678 61.7057 81.5308 61.8145 81.7248 62.0083L82.0132 62.2953C82.8894 63.1714 83.6206 63.9027 84.1228 64.5608C84.6527 65.2562 85.0252 65.9902 85.0252 66.8788C85.0252 67.7674 84.6527 68.5014 84.1228 69.1968C83.6206 69.8549 82.8894 70.5862 82.0118 71.4623L81.7248 71.7493C81.6301 71.851 81.5159 71.9325 81.3889 71.9891C81.262 72.0457 81.125 72.0761 80.986 72.0785C80.8471 72.081 80.7091 72.0554 80.5802 72.0034C80.4514 71.9513 80.3343 71.8739 80.236 71.7756C80.1378 71.6773 80.0603 71.5603 80.0083 71.4314C79.9562 71.3026 79.9307 71.1646 79.9331 71.0256C79.9356 70.8867 79.966 70.7496 80.0225 70.6227C80.0791 70.4958 80.1606 70.3815 80.2623 70.2868L80.4982 70.0495C81.4392 69.1085 82.0698 68.4766 82.4768 67.9412C82.8673 67.4307 82.9556 67.1327 82.9556 66.8788C82.9556 66.6249 82.8673 66.3269 82.4768 65.8164C82.0698 65.2824 81.4392 64.6491 80.4982 63.7081L80.2623 63.4708C80.0685 63.2768 79.9597 63.0138 79.9597 62.7396C79.9597 62.4653 80.0685 62.2023 80.2623 62.0083ZM70.6041 62.0083C70.8002 61.8255 71.0597 61.726 71.3278 61.7307C71.5958 61.7354 71.8516 61.844 72.0412 62.0336C72.2308 62.2232 72.3394 62.479 72.3442 62.7471C72.3489 63.0152 72.2494 63.2747 72.0666 63.4708L71.8307 63.7081C70.8897 64.6491 70.2605 65.2811 69.8521 65.8164C69.4616 66.3269 69.3747 66.6249 69.3747 66.8788C69.3747 67.1327 69.4616 67.4307 69.8521 67.9412C70.2605 68.4752 70.8897 69.1085 71.8307 70.0495L72.068 70.2868C72.1668 70.3823 72.2455 70.4965 72.2997 70.6228C72.3539 70.7491 72.3824 70.8849 72.3835 71.0223C72.3846 71.1597 72.3584 71.2959 72.3063 71.4231C72.2542 71.5502 72.1773 71.6657 72.0801 71.7628C71.9829 71.86 71.8673 71.9367 71.7401 71.9887C71.6129 72.0407 71.4766 72.0668 71.3392 72.0655C71.2018 72.0643 71.0661 72.0357 70.9398 71.9814C70.8136 71.9271 70.6995 71.8482 70.6041 71.7493L70.3171 71.4623C69.4395 70.5862 68.7083 69.8549 68.206 69.1968C67.6762 68.5014 67.3051 67.7674 67.3051 66.8788C67.3051 65.9902 67.6776 65.2562 68.206 64.5608C68.7083 63.9027 69.4395 63.1714 70.3171 62.2953L70.6041 62.0083Z" fill="white"/>
</svg>
