<svg width="105" height="97" viewBox="0 0 105 97" fill="none" xmlns="http://www.w3.org/2000/svg">
<circle cx="74.2334" cy="74.2501" r="74.2304" fill="#EDF0FF"/>
<circle cx="74.233" cy="74.25" r="60.6614" fill="#0C1239"/>
<path d="M62.58 62.4919C61.9337 63.1614 61.2758 63.8077 60.6525 64.4772C60.5486 64.5926 60.514 64.8235 60.5255 64.9966C60.8949 68.5285 58.2401 71.645 54.7543 71.7604C51.1762 71.8758 48.3252 69.0133 48.4522 65.4352C48.5792 61.9725 51.7302 59.2831 55.1699 59.6756C55.3661 59.6986 55.6315 59.6294 55.7701 59.5024C56.428 58.9022 57.0397 58.2789 57.663 57.6672C56.6242 56.2129 56.6242 56.2129 57.5707 55.0702C57.4668 54.9547 57.3629 54.8162 57.2475 54.7008C56.0471 53.4773 54.8351 52.2423 53.5886 51.0419C53.3808 50.8457 53.0345 50.7187 52.746 50.6841C52.2496 50.6263 51.7533 50.661 51.2455 50.6725C50.7838 50.6725 50.4606 50.4648 50.3221 50.0377C49.7103 48.214 49.0986 46.4018 48.5215 44.5666C48.4522 44.3358 48.6023 44.0241 48.6715 43.7586C48.683 43.6894 48.7638 43.6432 48.8216 43.5855C50.6106 41.8195 50.0104 42.0273 52.1919 42.7198C53.4962 43.1238 54.7774 43.5971 56.0702 44.001C56.6819 44.1973 57.0051 44.5666 56.9012 45.1899C56.705 46.5173 57.1898 47.4637 58.2055 48.3294C59.302 49.2528 60.26 50.3493 61.2758 51.3651C62.6378 50.4186 62.6378 50.4186 63.8843 51.4689C64.5422 50.811 65.2002 50.1531 65.8465 49.4721C65.9389 49.3682 65.9504 49.1605 65.9389 48.9989C65.5349 45.2476 68.4551 42.085 72.2179 42.2466C72.9451 42.2812 73.6953 42.5005 74.3879 42.7545C75.1612 43.0315 75.2766 43.7009 74.7226 44.3011C74.1224 44.9475 73.5222 45.617 72.8643 46.1941C72.3333 46.6673 72.2179 47.1983 72.3564 47.8677C72.9566 48.0062 73.4876 47.9831 73.9608 47.4637C74.5726 46.7943 75.242 46.1941 75.8999 45.5708C76.5463 44.9591 77.1927 45.0745 77.5274 45.894C78.3815 47.9947 78.1853 50.0261 76.8464 51.8498C75.5075 53.6851 73.6376 54.47 71.3753 54.2968C71.0291 54.2737 70.8097 54.3199 70.5674 54.5738C69.9787 55.174 69.3554 55.7512 68.7437 56.3514C69.8517 57.4594 70.8905 58.5098 71.9294 59.5486C73.6261 61.2453 75.3344 62.942 77.0311 64.6503C78.37 65.9892 78.37 67.4551 77.0426 68.794C76.3732 69.4635 75.7153 70.1329 75.0458 70.7909C73.7184 72.1182 72.2525 72.1067 70.9021 70.7793C68.1435 68.0322 65.4079 65.3082 62.58 62.4919ZM74.3071 69.1749C74.0301 68.9441 73.8569 68.8286 73.7069 68.6786C71.3061 66.2893 68.9168 63.9001 66.5275 61.4993C66.4006 61.3723 66.2621 61.2684 66.1697 61.1299C65.8927 60.7375 65.8927 60.3219 66.239 59.9757C66.5852 59.6294 67.0008 59.6409 67.3932 59.9295C67.5317 60.0334 67.6471 60.1603 67.7626 60.2873C69.7248 62.2495 71.6754 64.2002 73.6376 66.1624C74.2263 66.751 74.7919 67.3397 75.369 67.9168C76.5348 66.9588 76.5578 66.6356 75.5306 65.6083C73.0951 63.1729 70.6597 60.749 68.2358 58.302C67.8549 57.9211 67.4509 57.6787 66.92 57.5402C65.281 57.1247 64.1844 56.0743 63.7805 54.4238C63.5958 53.6504 63.1341 53.1541 62.6378 52.7386C61.4143 53.9621 60.2023 55.151 58.9904 56.3629C59.429 56.9169 59.9715 57.3555 60.7679 57.5402C62.1992 57.875 63.2495 58.7983 63.6419 60.1834C63.942 61.2107 64.4961 61.9494 65.2348 62.6304C65.7427 63.1036 66.2159 63.6 66.7007 64.0963C68.5359 65.9315 70.3711 67.7668 72.2064 69.602C72.7719 70.156 73.1644 70.156 73.7415 69.602C73.8685 69.4981 74.0416 69.3827 74.3071 69.1749ZM54.4196 61.3723C52.7921 61.4531 51.4417 62.2033 50.6683 63.7616C49.8719 65.3429 50.022 66.9126 51.0954 68.3208C52.1573 69.7059 53.6001 70.2599 55.3199 69.9367C57.6861 69.4981 59.1866 67.2935 58.748 64.8927C58.6441 64.304 58.7595 63.8654 59.1981 63.4499C59.9484 62.7574 60.6409 62.0187 61.3681 61.303C62.0722 60.5989 62.0722 60.3796 61.2988 59.7448C60.9987 59.5024 60.6063 59.3408 60.2369 59.1908C59.9715 59.0754 59.6598 59.0869 59.4174 58.9484C59.0712 58.7637 58.8634 58.8791 58.6326 59.1331C58.1593 59.6409 57.6168 60.0795 57.1782 60.6105C56.5665 61.3377 55.897 61.7532 54.9275 61.3954C54.812 61.3607 54.662 61.3838 54.4196 61.3723ZM72.5988 44.2203C72.5296 44.1049 72.4488 44.001 72.3795 43.8856C71.7793 43.978 71.1676 44.0126 70.5904 44.1857C68.5359 44.8321 67.3009 46.9328 67.7049 49.0335C67.8318 49.6683 67.7164 50.1416 67.2085 50.5686C66.7584 50.9611 66.4006 51.4574 65.9273 51.8152C65.2002 52.3692 65.0039 52.9694 65.3618 53.8582C65.6272 54.5277 65.9042 55.1163 66.5044 55.5319C66.793 55.7396 66.9777 55.7165 67.2316 55.4511C68.028 54.62 68.8822 53.8351 69.6671 52.9925C70.1172 52.5078 70.5904 52.4039 71.2137 52.5193C73.4529 52.9579 75.6922 51.4574 76.1539 49.2182C76.2462 48.7565 76.2462 48.2717 76.2924 47.7869C76.2347 47.7754 76.1885 47.7638 76.1308 47.7523C75.6114 48.2602 75.1035 48.7796 74.5495 49.2528C74.3186 49.449 73.9954 49.6222 73.6953 49.6452C72.9682 49.703 72.2295 49.703 71.5023 49.6452C71.2368 49.6222 70.7867 49.4375 70.7405 49.2528C70.4635 48.1563 70.3596 47.002 70.7751 45.9286C70.9483 45.4785 71.4446 45.1437 71.8139 44.7859C72.0563 44.5666 72.3333 44.405 72.5988 44.2203ZM60.0754 52.6347C59.9368 52.4847 59.8099 52.3462 59.6714 52.2077C58.6326 51.1573 57.6284 50.0608 56.5203 49.0797C55.5508 48.2255 54.9275 47.3022 55.1814 45.9517C55.2391 45.617 55.0544 45.49 54.7543 45.3977C53.5539 45.0168 52.3535 44.5897 51.1416 44.2088C50.9684 44.1511 50.6799 44.2088 50.5529 44.3358C50.4375 44.4512 50.3798 44.7513 50.4375 44.9244C50.7145 45.8594 51.0492 46.7827 51.3493 47.7177C51.7649 48.9527 51.7649 48.9758 53.0461 48.9412C53.6693 48.9296 54.131 49.1143 54.5697 49.5645C55.8509 50.8572 57.1436 52.1153 58.4133 53.3965C58.5633 53.5466 58.7134 53.6851 58.8634 53.8351C59.2789 53.4196 59.6598 53.0387 60.0754 52.6347Z" fill="white"/>
<path d="M54.5003 68.2978C53.0806 68.2862 51.9033 67.0858 51.9264 65.6661C51.9494 64.2464 53.1498 63.0806 54.5696 63.1153C55.9662 63.1383 57.1204 64.3157 57.1089 65.7238C57.1089 67.132 55.92 68.3093 54.5003 68.2978ZM54.5465 66.5664C54.9966 66.5549 55.3775 66.1624 55.3891 65.7123C55.3891 65.239 54.9851 64.8351 54.5003 64.8466C54.0502 64.8582 53.6693 65.2506 53.6577 65.7007C53.6577 66.174 54.0617 66.578 54.5465 66.5664Z" fill="white"/>
</svg>
