<svg width="105" height="97" viewBox="0 0 105 97" fill="none" xmlns="http://www.w3.org/2000/svg">
<circle cx="74.2334" cy="74.2501" r="74.2304" fill="#EDF0FF"/>
<circle cx="74.2331" cy="74.25" r="60.6614" fill="#0C1239"/>
<path d="M73.1249 60.75L75.9394 62.375L75.1269 63.7823L72.3124 62.1573L73.1249 60.75ZM73.1249 57.5H76.3749V59.125H73.1249V57.5ZM57.6874 62.1573L54.8729 63.7823L54.0604 62.375L56.8749 60.75L57.6874 62.1573ZM73.1249 75.375H71.4999V71.3125C71.4986 70.2355 71.0702 69.2029 70.3086 68.4413C69.547 67.6797 68.5145 67.2513 67.4374 67.25H62.5624C61.4854 67.2513 60.4528 67.6797 59.6912 68.4413C58.9297 69.2029 58.5012 70.2355 58.4999 71.3125V75.375H56.8749V71.3125C56.8767 69.8046 57.4764 68.359 58.5427 67.2927C59.6089 66.2265 61.0545 65.6267 62.5624 65.625H67.4374C68.9453 65.6267 70.391 66.2265 71.4572 67.2927C72.5234 68.359 73.1232 69.8046 73.1249 71.3125V75.375ZM64.9999 54.25C65.8034 54.25 66.5889 54.4883 67.2569 54.9347C67.925 55.381 68.4457 56.0155 68.7532 56.7578C69.0607 57.5002 69.1411 58.317 68.9844 59.1051C68.8276 59.8931 68.4407 60.617 67.8726 61.1851C67.3044 61.7533 66.5805 62.1402 65.7925 62.2969C65.0044 62.4537 64.1876 62.3732 63.4453 62.0658C62.703 61.7583 62.0685 61.2376 61.6221 60.5695C61.1757 59.9014 60.9374 59.116 60.9374 58.3125C60.9374 57.2351 61.3655 56.2017 62.1273 55.4399C62.8892 54.678 63.9225 54.25 64.9999 54.25ZM64.9999 52.625C63.8751 52.625 62.7754 52.9586 61.8401 53.5835C60.9048 54.2085 60.1758 55.0967 59.7454 56.136C59.3149 57.1752 59.2023 58.3188 59.4217 59.4221C59.6412 60.5253 60.1829 61.5388 60.9783 62.3342C61.7737 63.1296 62.7871 63.6713 63.8904 63.8907C64.9936 64.1102 66.1372 63.9975 67.1765 63.5671C68.2157 63.1366 69.104 62.4076 69.7289 61.4723C70.3539 60.537 70.6874 59.4374 70.6874 58.3125C70.6874 56.8041 70.0882 55.3574 69.0216 54.2908C67.955 53.2242 66.5084 52.625 64.9999 52.625ZM72.3124 54.4678L75.1269 52.8427L75.9394 54.25L73.1249 55.875L72.3124 54.4678ZM53.6249 57.5H56.8749V59.125H53.6249V57.5ZM56.8749 55.875L54.0604 54.25L54.8729 52.8427L57.6874 54.4678L56.8749 55.875Z" fill="white"/>
</svg>
