<svg width="354" height="415" viewBox="0 0 354 415" fill="none" xmlns="http://www.w3.org/2000/svg">
<circle opacity="0.1" cx="99.4367" cy="160.437" r="254.437" fill="#0C1239"/>
<g opacity="0.3">
<path d="M322.96 117.791H340.815V180.236H322.96V117.791ZM340.403 118.227H323.418V179.703H340.403V118.227Z" fill="#0C1239"/>
<path d="M337.335 123.992H326.393V124.476H337.335V123.992Z" fill="#0C1239"/>
<path d="M337.335 131.065H326.393V131.549H337.335V131.065Z" fill="#0C1239"/>
<path d="M337.335 138.138H326.393V138.622H337.335V138.138Z" fill="#0C1239"/>
<path d="M337.335 145.211H326.393V145.695H337.335V145.211Z" fill="#0C1239"/>
<path d="M337.335 152.284H326.393V152.768H337.335V152.284Z" fill="#0C1239"/>
<path d="M337.335 159.357H326.393V159.841H337.335V159.357Z" fill="#0C1239"/>
<path d="M337.335 166.43H326.393V166.914H337.335V166.43Z" fill="#0C1239"/>
<path d="M337.335 173.502H326.393V173.987H337.335V173.502Z" fill="#0C1239"/>
<path d="M324.975 97.2988H338.802V118.033H324.975V97.2988ZM338.344 97.7833H325.387V117.597H338.344V97.7833Z" fill="#0C1239"/>
<path d="M335.872 101.708H327.951V102.192H335.872V101.708Z" fill="#0C1239"/>
<path d="M335.872 107.424H327.951V107.908H335.872V107.424Z" fill="#0C1239"/>
<path d="M335.872 113.189H327.951V113.673H335.872V113.189Z" fill="#0C1239"/>
<path d="M326.393 86.1567H337.381V97.7835H326.393V86.1567ZM336.923 86.5927H326.805V97.2506H336.923V86.5927Z" fill="#0C1239"/>
<path d="M327.996 74.3359H335.779V86.5925H327.996V74.3359ZM335.367 74.8204H328.454V86.1565H335.367V74.8204Z" fill="#0C1239"/>
<path d="M332.116 63H331.658V74.5783H332.116V63Z" fill="#0C1239"/>
<path d="M290.592 117.791H308.447V180.236H290.592V117.791ZM307.989 118.227H291.004V179.703H307.989V118.227Z" fill="#0C1239"/>
<path d="M304.967 123.992H294.025V124.476H304.967V123.992Z" fill="#0C1239"/>
<path d="M304.967 131.065H294.025V131.549H304.967V131.065Z" fill="#0C1239"/>
<path d="M304.967 138.138H294.025V138.622H304.967V138.138Z" fill="#0C1239"/>
<path d="M304.967 145.211H294.025V145.695H304.967V145.211Z" fill="#0C1239"/>
<path d="M304.967 152.284H294.025V152.768H304.967V152.284Z" fill="#0C1239"/>
<path d="M304.967 159.357H294.025V159.841H304.967V159.357Z" fill="#0C1239"/>
<path d="M304.967 166.43H294.025V166.914H304.967V166.43Z" fill="#0C1239"/>
<path d="M304.967 173.502H294.025V173.987H304.967V173.502Z" fill="#0C1239"/>
<path d="M292.605 97.2988H306.432V118.033H292.605V97.2988ZM305.974 97.7833H293.017V117.597H305.974V97.7833Z" fill="#0C1239"/>
<path d="M303.455 101.708H295.535V102.192H303.455V101.708Z" fill="#0C1239"/>
<path d="M303.455 107.424H295.535V107.908H303.455V107.424Z" fill="#0C1239"/>
<path d="M303.455 113.189H295.535V113.673H303.455V113.189Z" fill="#0C1239"/>
<path d="M294.025 86.1567H305.013V97.7835H294.025V86.1567ZM304.555 86.5927H294.437V97.2506H304.555V86.5927Z" fill="#0C1239"/>
<path d="M295.581 74.3359H303.364V86.5925H295.581V74.3359ZM302.952 74.8204H296.039V86.1565H302.952V74.8204Z" fill="#0C1239"/>
<path d="M299.748 63H299.29V74.5783H299.748V63Z" fill="#0C1239"/>
<path d="M307.989 126.027H323.372V132.906H307.989V126.027ZM322.96 126.511H308.447V132.47H322.96V126.511Z" fill="#0C1239"/>
<path d="M307.989 142.014H323.372V148.893H307.989V142.014ZM322.96 142.45H308.447V148.408H322.96V142.45Z" fill="#0C1239"/>
<path d="M252.27 138.138H281.708V180.188H252.27V138.138ZM281.25 138.622H252.728V179.752H281.25V138.622Z" fill="#0C1239"/>
<path d="M268.844 143.902H276.628V152.138H268.844V143.902ZM276.216 144.338H269.302V151.654H276.216V144.338Z" fill="#0C1239"/>
<path d="M257.352 143.902H265.135V152.138H257.352V143.902ZM264.678 144.338H257.764V151.654H264.678V144.338Z" fill="#0C1239"/>
<path d="M268.844 155.044H276.628V163.28H268.844V155.044ZM276.216 155.529H269.302V162.844H276.216V155.529Z" fill="#0C1239"/>
<path d="M257.352 155.044H265.135V163.28H257.352V155.044ZM264.678 155.529H257.764V162.844H264.678V155.529Z" fill="#0C1239"/>
<path d="M268.844 166.187H276.628V174.423H268.844V166.187ZM276.216 166.671H269.302V173.987H276.216V166.671Z" fill="#0C1239"/>
<path d="M257.352 166.187H265.135V174.423H257.352V166.187ZM264.678 166.671H257.764V173.987H264.678V166.671Z" fill="#0C1239"/>
<path d="M215.781 123.992H244.991V180.188H215.781V123.992ZM244.579 124.476H216.239V179.752H244.579V124.476Z" fill="#0C1239"/>
<path d="M239.635 131.888H221.184V132.372H239.635V131.888Z" fill="#0C1239"/>
<path d="M239.635 139.881H221.184V140.365H239.635V139.881Z" fill="#0C1239"/>
<path d="M239.635 147.875H221.184V148.359H239.635V147.875Z" fill="#0C1239"/>
<path d="M239.635 155.868H221.184V156.352H239.635V155.868Z" fill="#0C1239"/>
<path d="M239.635 163.813H221.184V164.297H239.635V163.813Z" fill="#0C1239"/>
<path d="M239.635 171.806H221.184V172.291H239.635V171.806Z" fill="#0C1239"/>
<path d="M220.955 116.192H239.863V124.428H220.955V116.192ZM239.406 116.676H221.413V123.992H239.406V116.676Z" fill="#0C1239"/>
<path d="M-21.8315 123.992H7.37788V180.188H-21.8315V123.992ZM6.96584 124.476H-21.3737V179.752H6.96584V124.476Z" fill="#0C1239"/>
<path d="M2.02175 131.888H-16.4287V132.372H2.02175V131.888Z" fill="#0C1239"/>
<path d="M2.02175 139.881H-16.4287V140.365H2.02175V139.881Z" fill="#0C1239"/>
<path d="M2.02175 147.875H-16.4287V148.359H2.02175V147.875Z" fill="#0C1239"/>
<path d="M2.02175 155.868H-16.4287V156.352H2.02175V155.868Z" fill="#0C1239"/>
<path d="M2.02175 163.813H-16.4287V164.297H2.02175V163.813Z" fill="#0C1239"/>
<path d="M2.02175 171.806H-16.4287V172.291H2.02175V171.806Z" fill="#0C1239"/>
<path d="M-16.6577 116.192H2.25058V124.428H-16.6577V116.192ZM1.79275 116.676H-16.1999V123.992H1.79275V116.676Z" fill="#0C1239"/>
<path d="M126.825 123.992H156.034V180.188H126.825V123.992ZM155.622 124.476H127.283V179.752H155.622V124.476Z" fill="#0C1239"/>
<path d="M150.678 131.888H132.228V132.372H150.678V131.888Z" fill="#0C1239"/>
<path d="M150.678 139.881H132.228V140.365H150.678V139.881Z" fill="#0C1239"/>
<path d="M150.678 147.875H132.228V148.359H150.678V147.875Z" fill="#0C1239"/>
<path d="M150.678 155.868H132.228V156.352H150.678V155.868Z" fill="#0C1239"/>
<path d="M150.678 163.813H132.228V164.297H150.678V163.813Z" fill="#0C1239"/>
<path d="M150.678 171.806H132.228V172.291H150.678V171.806Z" fill="#0C1239"/>
<path d="M131.999 116.192H150.907V124.428H131.999V116.192ZM150.449 116.676H132.457V123.992H150.449V116.676Z" fill="#0C1239"/>
<path d="M165.511 86.1567H206.396V180.188H165.511V86.1567ZM205.938 86.5927H165.924V179.704H205.938V86.5927Z" fill="#0C1239"/>
<path d="M186.16 86.3989H185.703V179.994H186.16V86.3989Z" fill="#0C1239"/>
<path d="M201.223 95.9912H190.281V96.4757H201.223V95.9912Z" fill="#0C1239"/>
<path d="M201.223 103.064H190.281V103.549H201.223V103.064Z" fill="#0C1239"/>
<path d="M201.223 110.137H190.281V110.622H201.223V110.137Z" fill="#0C1239"/>
<path d="M201.223 117.21H190.281V117.694H201.223V117.21Z" fill="#0C1239"/>
<path d="M201.223 124.332H190.281V124.816H201.223V124.332Z" fill="#0C1239"/>
<path d="M180.849 141.529H169.907V142.014H180.849V141.529Z" fill="#0C1239"/>
<path d="M180.849 148.603H169.907V149.087H180.849V148.603Z" fill="#0C1239"/>
<path d="M180.849 155.675H169.907V156.16H180.849V155.675Z" fill="#0C1239"/>
<path d="M180.849 162.748H169.907V163.232H180.849V162.748Z" fill="#0C1239"/>
<path d="M180.849 169.821H169.907V170.305H180.849V169.821Z" fill="#0C1239"/>
<path d="M169.678 80.2466H201.452V86.5929H169.678V80.2466ZM200.994 80.731H170.136V86.1568H200.994V80.731Z" fill="#0C1239"/>
<path d="M53.5725 147.875H119.088V180.188H53.5725V147.875ZM118.63 148.311H53.9846V179.703H118.63V148.311Z" fill="#0C1239"/>
<path d="M53.5725 139.882H86.5361V148.311H53.5725V139.882ZM86.0783 140.366H53.9846V147.875H86.0783V140.366Z" fill="#0C1239"/>
<path d="M86.5362 148.117H86.0784V179.994H86.5362V148.117Z" fill="#0C1239"/>
<path d="M112.679 174.132H92.3057V174.616H112.679V174.132Z" fill="#0C1239"/>
<path d="M112.679 169.82H92.3057V170.305H112.679V169.82Z" fill="#0C1239"/>
<path d="M80.2181 157.225H59.8447V157.71H80.2181V157.225Z" fill="#0C1239"/>
<path d="M80.2181 152.914H59.8447V153.398H80.2181V152.914Z" fill="#0C1239"/>
<path d="M16.3525 138.138H45.7909V180.188H16.3525V138.138ZM45.333 138.622H16.8104V179.752H45.333V138.622Z" fill="#0C1239"/>
<path d="M32.9255 143.902H40.7086V152.138H32.9255V143.902ZM40.2508 144.338H33.3376V151.654H40.2508V144.338Z" fill="#0C1239"/>
<path d="M21.3887 143.902H29.1717V152.138H21.3887V143.902ZM28.7597 144.338H21.8465V151.654H28.7597V144.338Z" fill="#0C1239"/>
<path d="M32.9255 155.045H40.7086V163.281H32.9255V155.045ZM40.2508 155.529H33.3376V162.845H40.2508V155.529Z" fill="#0C1239"/>
<path d="M21.3887 155.045H29.1717V163.281H21.3887V155.045ZM28.7597 155.529H21.8465V162.845H28.7597V155.529Z" fill="#0C1239"/>
<path d="M32.9255 166.187H40.7086V174.423H32.9255V166.187ZM40.2508 166.671H33.3376V173.987H40.2508V166.671Z" fill="#0C1239"/>
<path d="M21.3887 166.187H29.1717V174.423H21.3887V166.187ZM28.7597 166.671H21.8465V173.987H28.7597V166.671Z" fill="#0C1239"/>
<path d="M21.3887 113.237H40.709V138.574H21.3887V113.237ZM40.2512 113.722H21.8007V138.138H40.2512V113.722Z" fill="#0C1239"/>
<path d="M25.0977 95.9907H37.047V113.722H25.0977V95.9907ZM36.5891 96.4752H25.5097V113.237H36.5891V96.4752Z" fill="#0C1239"/>
<path d="M31.2784 80.4883H30.8206V96.2328H31.2784V80.4883Z" fill="#0C1239"/>
</g>
</svg>
