<svg width="1182" height="386" viewBox="0 0 1182 386" fill="none" xmlns="http://www.w3.org/2000/svg">
<rect width="1182" height="384" rx="32" fill="#0C1239"/>
<g opacity="0.3">
<path d="M22.0713 308.728H2.67029e-05V385.918H22.0713V308.728ZM0.509377 309.267H21.5054V385.259H0.509377V309.267Z" fill="white"/>
<path d="M4.30122 316.393H17.8269V316.992H4.30122V316.393Z" fill="white"/>
<path d="M4.30122 325.136H17.8269V325.735H4.30122V325.136Z" fill="white"/>
<path d="M4.30122 333.879H17.8269V334.478H4.30122V333.879Z" fill="white"/>
<path d="M4.30122 342.622H17.8269V343.221H4.30122V342.622Z" fill="white"/>
<path d="M4.30122 351.365H17.8269V351.964H4.30122V351.365Z" fill="white"/>
<path d="M4.30122 360.108H17.8269V360.707H4.30122V360.108Z" fill="white"/>
<path d="M4.30122 368.852H17.8269V369.45H4.30122V368.852Z" fill="white"/>
<path d="M4.30122 377.594H17.8269V378.193H4.30122V377.594Z" fill="white"/>
<path d="M19.5798 283.397H2.48878V309.028H19.5798V283.397ZM3.0547 283.996H19.0705V308.489H3.0547V283.996Z" fill="white"/>
<path d="M6.1108 288.847H15.9014V289.446H6.1108V288.847Z" fill="white"/>
<path d="M6.1108 295.913H15.9014V296.512H6.1108V295.913Z" fill="white"/>
<path d="M6.1108 303.039H15.9014V303.638H6.1108V303.039Z" fill="white"/>
<path d="M17.8269 269.625H4.24458V283.997H17.8269V269.625ZM4.81051 270.163H17.3176V283.338H4.81051V270.163Z" fill="white"/>
<path d="M15.8462 255.013H6.22537V270.163H15.8462V255.013ZM6.73472 255.612H15.2803V269.624H6.73472V255.612Z" fill="white"/>
<path d="M10.7527 241H11.3186V255.312H10.7527V241Z" fill="white"/>
<path d="M62.082 308.728H40.0108V385.918H62.082V308.728ZM40.5767 309.267H61.5727V385.259H40.5767V309.267Z" fill="white"/>
<path d="M44.3119 316.393H57.8376V316.992H44.3119V316.393Z" fill="white"/>
<path d="M44.3119 325.136H57.8376V325.735H44.3119V325.136Z" fill="white"/>
<path d="M44.3119 333.879H57.8376V334.478H44.3119V333.879Z" fill="white"/>
<path d="M44.3119 342.622H57.8376V343.221H44.3119V342.622Z" fill="white"/>
<path d="M44.3119 351.365H57.8376V351.964H44.3119V351.365Z" fill="white"/>
<path d="M44.3119 360.108H57.8376V360.707H44.3119V360.108Z" fill="white"/>
<path d="M44.3119 368.852H57.8376V369.45H44.3119V368.852Z" fill="white"/>
<path d="M44.3119 377.594H57.8376V378.193H44.3119V377.594Z" fill="white"/>
<path d="M59.593 283.397H42.502V309.028H59.593V283.397ZM43.0679 283.996H59.0837V308.489H43.0679V283.996Z" fill="white"/>
<path d="M46.1814 288.847H55.9719V289.446H46.1814V288.847Z" fill="white"/>
<path d="M46.1814 295.913H55.9719V296.512H46.1814V295.913Z" fill="white"/>
<path d="M46.1814 303.039H55.9719V303.638H46.1814V303.039Z" fill="white"/>
<path d="M57.8376 269.625H44.2554V283.997H57.8376V269.625ZM44.8213 270.163H57.3283V283.338H44.8213V270.163Z" fill="white"/>
<path d="M55.9143 255.013H46.2935V270.163H55.9143V255.013ZM46.8029 255.612H55.3484V269.624H46.8029V255.612Z" fill="white"/>
<path d="M50.7637 241H51.3296V255.312H50.7637V241Z" fill="white"/>
<path d="M40.5767 318.908H21.5614V327.412H40.5767V318.908ZM22.0708 319.507H40.0107V326.873H22.0708V319.507Z" fill="white"/>
<path d="M40.5767 338.67H21.5614V347.173H40.5767V338.67ZM22.0708 339.209H40.0107V346.575H22.0708V339.209Z" fill="white"/>
<path d="M109.452 333.879H73.0629V385.858H109.452V333.879ZM73.6289 334.478H108.886V385.319H73.6289V334.478Z" fill="white"/>
<path d="M88.9636 341.005H79.3428V351.185H88.9636V341.005ZM79.8521 341.544H88.3977V350.586H79.8521V341.544Z" fill="white"/>
<path d="M103.169 341.005H93.5486V351.185H103.169V341.005ZM94.1146 341.544H102.66V350.586H94.1146V341.544Z" fill="white"/>
<path d="M88.9636 354.779H79.3428V364.959H88.9636V354.779ZM79.8521 355.377H88.3977V364.42H79.8521V355.377Z" fill="white"/>
<path d="M103.169 354.779H93.5486V364.959H103.169V354.779ZM94.1146 355.377H102.66V364.42H94.1146V355.377Z" fill="white"/>
<path d="M88.9636 368.552H79.3428V378.732H88.9636V368.552ZM79.8521 369.151H88.3977V378.193H79.8521V369.151Z" fill="white"/>
<path d="M103.169 368.552H93.5486V378.732H103.169V368.552ZM94.1146 369.151H102.66V378.193H94.1146V369.151Z" fill="white"/>
<path d="M495.754 333.879H459.364V385.858H495.754V333.879ZM459.93 334.478H495.188V385.319H459.93V334.478Z" fill="white"/>
<path d="M475.268 341.005H465.647V351.185H475.268V341.005ZM466.213 341.544H474.758V350.586H466.213V341.544Z" fill="white"/>
<path d="M489.529 341.005H479.908V351.185H489.529V341.005ZM480.417 341.544H488.963V350.586H480.417V341.544Z" fill="white"/>
<path d="M475.268 354.779H465.647V364.959H475.268V354.779ZM466.213 355.377H474.758V364.42H466.213V355.377Z" fill="white"/>
<path d="M489.529 354.779H479.908V364.959H489.529V354.779ZM480.417 355.377H488.963V364.42H480.417V355.377Z" fill="white"/>
<path d="M475.268 368.552H465.647V378.732H475.268V368.552ZM466.213 369.151H474.758V378.193H466.213V369.151Z" fill="white"/>
<path d="M489.529 368.552H479.908V378.732H489.529V368.552ZM480.417 369.151H488.963V378.193H480.417V369.151Z" fill="white"/>
<path d="M154.556 316.393H118.45V385.858H154.556V316.393ZM118.959 316.992H153.99V385.319H118.959V316.992Z" fill="white"/>
<path d="M125.071 326.154H147.878V326.753H125.071V326.154Z" fill="white"/>
<path d="M125.071 336.035H147.878V336.634H125.071V336.035Z" fill="white"/>
<path d="M125.071 345.916H147.878V346.514H125.071V345.916Z" fill="white"/>
<path d="M125.071 355.796H147.878V356.395H125.071V355.796Z" fill="white"/>
<path d="M125.071 365.617H147.878V366.216H125.071V365.617Z" fill="white"/>
<path d="M125.071 375.498H147.878V376.097H125.071V375.498Z" fill="white"/>
<path d="M148.161 306.752H124.788V316.932H148.161V306.752ZM125.354 307.351H147.595V316.393H125.354V307.351Z" fill="white"/>
<path d="M448.273 316.393H412.167V385.858H448.273V316.393ZM412.677 316.992H447.708V385.319H412.677V316.992Z" fill="white"/>
<path d="M418.788 326.154H441.595V326.753H418.788V326.154Z" fill="white"/>
<path d="M418.788 336.035H441.595V336.634H418.788V336.035Z" fill="white"/>
<path d="M418.788 345.916H441.595V346.514H418.788V345.916Z" fill="white"/>
<path d="M418.788 355.796H441.595V356.395H418.788V355.796Z" fill="white"/>
<path d="M418.788 365.617H441.595V366.216H418.788V365.617Z" fill="white"/>
<path d="M418.788 375.498H441.595V376.097H418.788V375.498Z" fill="white"/>
<path d="M441.878 306.752H418.505V316.932H441.878V306.752ZM419.071 307.351H441.312V316.393H419.071V307.351Z" fill="white"/>
<path d="M264.517 316.393H228.41V385.858H264.517V316.393ZM228.92 316.992H263.951V385.319H228.92V316.992Z" fill="white"/>
<path d="M235.031 326.154H257.838V326.753H235.031V326.154Z" fill="white"/>
<path d="M235.031 336.035H257.838V336.634H235.031V336.035Z" fill="white"/>
<path d="M235.031 345.916H257.838V346.514H235.031V345.916Z" fill="white"/>
<path d="M235.031 355.796H257.838V356.395H235.031V355.796Z" fill="white"/>
<path d="M235.031 365.617H257.838V366.216H235.031V365.617Z" fill="white"/>
<path d="M235.031 375.498H257.838V376.097H235.031V375.498Z" fill="white"/>
<path d="M258.121 306.752H234.748V316.932H258.121V306.752ZM235.314 307.351H257.555V316.393H235.314V307.351Z" fill="white"/>
<path d="M216.696 269.625H166.158V385.858H216.696V269.625ZM166.724 270.163H216.186V385.259H166.724V270.163Z" fill="white"/>
<path d="M191.171 269.924H191.737V385.619H191.171V269.924Z" fill="white"/>
<path d="M172.552 281.781H186.078V282.38H172.552V281.781Z" fill="white"/>
<path d="M172.552 290.524H186.078V291.123H172.552V290.524Z" fill="white"/>
<path d="M172.552 299.267H186.078V299.866H172.552V299.267Z" fill="white"/>
<path d="M172.552 308.01H186.078V308.609H172.552V308.01Z" fill="white"/>
<path d="M172.552 316.813H186.078V317.412H172.552V316.813Z" fill="white"/>
<path d="M197.736 338.072H211.262V338.67H197.736V338.072Z" fill="white"/>
<path d="M197.736 346.814H211.262V347.413H197.736V346.814Z" fill="white"/>
<path d="M197.736 355.557H211.262V356.156H197.736V355.557Z" fill="white"/>
<path d="M197.736 364.3H211.262V364.899H197.736V364.3Z" fill="white"/>
<path d="M197.736 373.043H211.262V373.642H197.736V373.043Z" fill="white"/>
<path d="M211.545 262.319H172.269V270.163H211.545V262.319ZM172.835 262.917H210.979V269.624H172.835V262.917Z" fill="white"/>
<path d="M355.065 345.916H274.081V385.858H355.065V345.916ZM274.647 346.455H354.556V385.259H274.647V346.455Z" fill="white"/>
<path d="M355.065 336.035H314.319V346.455H355.065V336.035ZM314.884 336.634H354.556V345.916H314.884V336.634Z" fill="white"/>
<path d="M314.318 346.215H314.884V385.619H314.318V346.215Z" fill="white"/>
<path d="M282.003 378.372H307.187V378.971H282.003V378.372Z" fill="white"/>
<path d="M282.003 373.043H307.187V373.642H282.003V373.043Z" fill="white"/>
<path d="M322.128 357.473H347.312V358.072H322.128V357.473Z" fill="white"/>
<path d="M322.128 352.144H347.312V352.742H322.128V352.144Z" fill="white"/>
<path d="M591 345.916H510.016V385.858H591V345.916ZM510.582 346.455H590.434V385.259H510.525V346.455H510.582Z" fill="white"/>
<path d="M591 336.035H550.253V346.455H591V336.035ZM550.762 336.634H590.434V345.916H550.762V336.634Z" fill="white"/>
<path d="M550.196 346.215H550.762V385.618H550.196V346.215Z" fill="white"/>
<path d="M517.938 378.372H543.122V378.971H517.938V378.372Z" fill="white"/>
<path d="M517.938 373.043H543.122V373.642H517.938V373.043Z" fill="white"/>
<path d="M558.006 357.473H583.19V358.072H558.006V357.473Z" fill="white"/>
<path d="M558.006 352.144H583.19V352.742H558.006V352.144Z" fill="white"/>
<path d="M401.073 333.879H364.684V385.858H401.073V333.879ZM365.25 334.478H400.508V385.319H365.25V334.478Z" fill="white"/>
<path d="M380.587 341.005H370.967V351.186H380.587V341.005ZM371.533 341.544H380.078V350.587H371.533V341.544Z" fill="white"/>
<path d="M394.848 341.005H385.227V351.186H394.848V341.005ZM385.737 341.544H394.282V350.587H385.737V341.544Z" fill="white"/>
<path d="M380.587 354.779H370.967V364.959H380.587V354.779ZM371.533 355.378H380.078V364.42H371.533V355.378Z" fill="white"/>
<path d="M394.848 354.779H385.227V364.959H394.848V354.779ZM385.737 355.378H394.282V364.42H385.737V355.378Z" fill="white"/>
<path d="M380.587 368.552H370.967V378.732H380.587V368.552ZM371.533 369.151H380.078V378.193H371.533V369.151Z" fill="white"/>
<path d="M394.848 368.552H385.227V378.732H394.848V368.552ZM385.737 369.151H394.282V378.193H385.737V369.151Z" fill="white"/>
<path d="M394.848 303.099H370.966V334.418H394.848V303.099ZM371.532 303.698H394.339V333.879H371.532V303.698Z" fill="white"/>
<path d="M390.263 281.781H375.493V303.698H390.263V281.781ZM376.059 282.38H389.754V303.099H376.059V282.38Z" fill="white"/>
<path d="M382.624 262.618H383.189V282.08H382.624V262.618Z" fill="white"/>
</g>
<g opacity="0.3">
<path d="M1159.93 308.728H1182V385.918H1159.93V308.728ZM1181.49 309.267H1160.49V385.259H1181.49V309.267Z" fill="white"/>
<path d="M1177.7 316.393H1164.17V316.992H1177.7V316.393Z" fill="white"/>
<path d="M1177.7 325.136H1164.17V325.735H1177.7V325.136Z" fill="white"/>
<path d="M1177.7 333.879H1164.17V334.478H1177.7V333.879Z" fill="white"/>
<path d="M1177.7 342.622H1164.17V343.221H1177.7V342.622Z" fill="white"/>
<path d="M1177.7 351.365H1164.17V351.964H1177.7V351.365Z" fill="white"/>
<path d="M1177.7 360.108H1164.17V360.707H1177.7V360.108Z" fill="white"/>
<path d="M1177.7 368.852H1164.17V369.45H1177.7V368.852Z" fill="white"/>
<path d="M1177.7 377.594H1164.17V378.193H1177.7V377.594Z" fill="white"/>
<path d="M1162.42 283.397H1179.51V309.028H1162.42V283.397ZM1178.95 283.996H1162.93V308.489H1178.95V283.996Z" fill="white"/>
<path d="M1175.89 288.847H1166.1V289.446H1175.89V288.847Z" fill="white"/>
<path d="M1175.89 295.913H1166.1V296.512H1175.89V295.913Z" fill="white"/>
<path d="M1175.89 303.039H1166.1V303.638H1175.89V303.039Z" fill="white"/>
<path d="M1164.17 269.625H1177.76V283.997H1164.17V269.625ZM1177.19 270.163H1164.68V283.338H1177.19V270.163Z" fill="white"/>
<path d="M1166.15 255.013H1175.78V270.163H1166.15V255.013ZM1175.27 255.612H1166.72V269.624H1175.27V255.612Z" fill="white"/>
<path d="M1171.25 241H1170.68V255.312H1171.25V241Z" fill="white"/>
<path d="M1119.92 308.728H1141.99V385.918H1119.92V308.728ZM1141.42 309.267H1120.43V385.259H1141.42V309.267Z" fill="white"/>
<path d="M1137.69 316.393H1124.16V316.992H1137.69V316.393Z" fill="white"/>
<path d="M1137.69 325.136H1124.16V325.735H1137.69V325.136Z" fill="white"/>
<path d="M1137.69 333.879H1124.16V334.478H1137.69V333.879Z" fill="white"/>
<path d="M1137.69 342.622H1124.16V343.221H1137.69V342.622Z" fill="white"/>
<path d="M1137.69 351.365H1124.16V351.964H1137.69V351.365Z" fill="white"/>
<path d="M1137.69 360.108H1124.16V360.707H1137.69V360.108Z" fill="white"/>
<path d="M1137.69 368.852H1124.16V369.45H1137.69V368.852Z" fill="white"/>
<path d="M1137.69 377.594H1124.16V378.193H1137.69V377.594Z" fill="white"/>
<path d="M1122.41 283.397H1139.5V309.028H1122.41V283.397ZM1138.93 283.996H1122.92V308.489H1138.93V283.996Z" fill="white"/>
<path d="M1135.82 288.847H1126.03V289.446H1135.82V288.847Z" fill="white"/>
<path d="M1135.82 295.913H1126.03V296.512H1135.82V295.913Z" fill="white"/>
<path d="M1135.82 303.039H1126.03V303.638H1135.82V303.039Z" fill="white"/>
<path d="M1124.16 269.625H1137.74V283.997H1124.16V269.625ZM1137.18 270.163H1124.67V283.338H1137.18V270.163Z" fill="white"/>
<path d="M1126.09 255.013H1135.71V270.163H1126.09V255.013ZM1135.2 255.612H1126.65V269.624H1135.2V255.612Z" fill="white"/>
<path d="M1131.24 241H1130.67V255.312H1131.24V241Z" fill="white"/>
<path d="M1141.42 318.908H1160.44V327.412H1141.42V318.908ZM1159.93 319.507H1141.99V326.873H1159.93V319.507Z" fill="white"/>
<path d="M1141.42 338.67H1160.44V347.173H1141.42V338.67ZM1159.93 339.209H1141.99V346.575H1159.93V339.209Z" fill="white"/>
<path d="M1072.55 333.879H1108.94V385.858H1072.55V333.879ZM1108.37 334.478H1073.11V385.319H1108.37V334.478Z" fill="white"/>
<path d="M1093.04 341.005H1102.66V351.185H1093.04V341.005ZM1102.15 341.544H1093.6V350.586H1102.15V341.544Z" fill="white"/>
<path d="M1078.83 341.005H1088.45V351.185H1078.83V341.005ZM1087.89 341.544H1079.34V350.586H1087.89V341.544Z" fill="white"/>
<path d="M1093.04 354.779H1102.66V364.959H1093.04V354.779ZM1102.15 355.377H1093.6V364.42H1102.15V355.377Z" fill="white"/>
<path d="M1078.83 354.779H1088.45V364.959H1078.83V354.779ZM1087.89 355.377H1079.34V364.42H1087.89V355.377Z" fill="white"/>
<path d="M1093.04 368.552H1102.66V378.732H1093.04V368.552ZM1102.15 369.151H1093.6V378.193H1102.15V369.151Z" fill="white"/>
<path d="M1078.83 368.552H1088.45V378.732H1078.83V368.552ZM1087.89 369.151H1079.34V378.193H1087.89V369.151Z" fill="white"/>
<path d="M686.246 333.879H722.636V385.858H686.246V333.879ZM722.07 334.478H686.812V385.319H722.07V334.478Z" fill="white"/>
<path d="M706.732 341.005H716.353V351.185H706.732V341.005ZM715.787 341.544H707.242V350.586H715.787V341.544Z" fill="white"/>
<path d="M692.472 341.005H702.092V351.185H692.472V341.005ZM701.583 341.544H693.038V350.586H701.583V341.544Z" fill="white"/>
<path d="M706.732 354.779H716.353V364.959H706.732V354.779ZM715.787 355.377H707.242V364.42H715.787V355.377Z" fill="white"/>
<path d="M692.472 354.779H702.092V364.959H692.472V354.779ZM701.583 355.377H693.038V364.42H701.583V355.377Z" fill="white"/>
<path d="M706.732 368.552H716.353V378.732H706.732V368.552ZM715.787 369.151H707.242V378.193H715.787V369.151Z" fill="white"/>
<path d="M692.472 368.552H702.092V378.732H692.472V368.552ZM701.583 369.151H693.038V378.193H701.583V369.151Z" fill="white"/>
<path d="M1027.44 316.393H1063.55V385.858H1027.44V316.393ZM1063.04 316.992H1028.01V385.319H1063.04V316.992Z" fill="white"/>
<path d="M1056.93 326.154H1034.12V326.753H1056.93V326.154Z" fill="white"/>
<path d="M1056.93 336.035H1034.12V336.634H1056.93V336.035Z" fill="white"/>
<path d="M1056.93 345.916H1034.12V346.514H1056.93V345.916Z" fill="white"/>
<path d="M1056.93 355.796H1034.12V356.395H1056.93V355.796Z" fill="white"/>
<path d="M1056.93 365.617H1034.12V366.216H1056.93V365.617Z" fill="white"/>
<path d="M1056.93 375.498H1034.12V376.097H1056.93V375.498Z" fill="white"/>
<path d="M1033.84 306.752H1057.21V316.932H1033.84V306.752ZM1056.65 307.351H1034.41V316.393H1056.65V307.351Z" fill="white"/>
<path d="M733.727 316.393H769.833V385.858H733.727V316.393ZM769.324 316.992H734.293V385.319H769.324V316.992Z" fill="white"/>
<path d="M763.212 326.154H740.405V326.753H763.212V326.154Z" fill="white"/>
<path d="M763.212 336.035H740.405V336.634H763.212V336.035Z" fill="white"/>
<path d="M763.212 345.916H740.405V346.514H763.212V345.916Z" fill="white"/>
<path d="M763.212 355.796H740.405V356.395H763.212V355.796Z" fill="white"/>
<path d="M763.212 365.617H740.405V366.216H763.212V365.617Z" fill="white"/>
<path d="M763.212 375.498H740.405V376.097H763.212V375.498Z" fill="white"/>
<path d="M740.122 306.752H763.495V316.932H740.122V306.752ZM762.929 307.351H740.688V316.393H762.929V307.351Z" fill="white"/>
<path d="M917.483 316.393H953.59V385.858H917.483V316.393ZM953.08 316.992H918.049V385.319H953.08V316.992Z" fill="white"/>
<path d="M946.969 326.154H924.162V326.753H946.969V326.154Z" fill="white"/>
<path d="M946.969 336.035H924.162V336.634H946.969V336.035Z" fill="white"/>
<path d="M946.969 345.916H924.162V346.514H946.969V345.916Z" fill="white"/>
<path d="M946.969 355.796H924.162V356.395H946.969V355.796Z" fill="white"/>
<path d="M946.969 365.617H924.162V366.216H946.969V365.617Z" fill="white"/>
<path d="M946.969 375.498H924.162V376.097H946.969V375.498Z" fill="white"/>
<path d="M923.879 306.752H947.252V316.932H923.879V306.752ZM946.686 307.351H924.445V316.393H946.686V307.351Z" fill="white"/>
<path d="M965.304 269.625H1015.84V385.858H965.304V269.625ZM1015.28 270.163H965.814V385.259H1015.28V270.163Z" fill="white"/>
<path d="M990.829 269.924H990.263V385.619H990.829V269.924Z" fill="white"/>
<path d="M1009.45 281.781H995.922V282.38H1009.45V281.781Z" fill="white"/>
<path d="M1009.45 290.524H995.922V291.123H1009.45V290.524Z" fill="white"/>
<path d="M1009.45 299.267H995.922V299.866H1009.45V299.267Z" fill="white"/>
<path d="M1009.45 308.01H995.922V308.609H1009.45V308.01Z" fill="white"/>
<path d="M1009.45 316.813H995.922V317.412H1009.45V316.813Z" fill="white"/>
<path d="M984.264 338.072H970.738V338.67H984.264V338.072Z" fill="white"/>
<path d="M984.264 346.814H970.738V347.413H984.264V346.814Z" fill="white"/>
<path d="M984.264 355.557H970.738V356.156H984.264V355.557Z" fill="white"/>
<path d="M984.264 364.3H970.738V364.899H984.264V364.3Z" fill="white"/>
<path d="M984.264 373.043H970.738V373.642H984.264V373.043Z" fill="white"/>
<path d="M970.456 262.319H1009.73V270.163H970.456V262.319ZM1009.17 262.917H971.021V269.624H1009.17V262.917Z" fill="white"/>
<path d="M826.935 345.916H907.919V385.858H826.935V345.916ZM907.354 346.455H827.444V385.259H907.354V346.455Z" fill="white"/>
<path d="M826.935 336.035H867.682V346.455H826.935V336.035ZM867.116 336.634H827.444V345.916H867.116V336.634Z" fill="white"/>
<path d="M867.682 346.215H867.116V385.619H867.682V346.215Z" fill="white"/>
<path d="M899.997 378.372H874.813V378.971H899.997V378.372Z" fill="white"/>
<path d="M899.997 373.043H874.813V373.642H899.997V373.043Z" fill="white"/>
<path d="M859.872 357.473H834.688V358.072H859.872V357.473Z" fill="white"/>
<path d="M859.872 352.144H834.688V352.742H859.872V352.144Z" fill="white"/>
<path d="M591 345.916H671.984V385.858H591V345.916ZM671.418 346.455H591.566V385.259H671.475V346.455H671.418Z" fill="white"/>
<path d="M591 336.035H631.747V346.455H591V336.035ZM631.238 336.634H591.566V345.916H631.238V336.634Z" fill="white"/>
<path d="M631.804 346.215H631.239V385.618H631.804V346.215Z" fill="white"/>
<path d="M664.062 378.372H638.878V378.971H664.062V378.372Z" fill="white"/>
<path d="M664.062 373.043H638.878V373.642H664.062V373.043Z" fill="white"/>
<path d="M623.994 357.473H598.81V358.072H623.994V357.473Z" fill="white"/>
<path d="M623.994 352.144H598.81V352.742H623.994V352.144Z" fill="white"/>
<path d="M780.927 333.879H817.316V385.858H780.927V333.879ZM816.75 334.478H781.493V385.319H816.75V334.478Z" fill="white"/>
<path d="M801.413 341.005H811.034V351.186H801.413V341.005ZM810.468 341.544H801.922V350.587H810.468V341.544Z" fill="white"/>
<path d="M787.152 341.005H796.773V351.186H787.152V341.005ZM796.263 341.544H787.718V350.587H796.263V341.544Z" fill="white"/>
<path d="M801.413 354.779H811.034V364.959H801.413V354.779ZM810.468 355.378H801.922V364.42H810.468V355.378Z" fill="white"/>
<path d="M787.152 354.779H796.773V364.959H787.152V354.779ZM796.263 355.378H787.718V364.42H796.263V355.378Z" fill="white"/>
<path d="M801.413 368.552H811.034V378.732H801.413V368.552ZM810.468 369.151H801.922V378.193H810.468V369.151Z" fill="white"/>
<path d="M787.152 368.552H796.773V378.732H787.152V368.552ZM796.263 369.151H787.718V378.193H796.263V369.151Z" fill="white"/>
<path d="M787.152 303.099H811.034V334.418H787.152V303.099ZM810.468 303.698H787.661V333.879H810.468V303.698Z" fill="white"/>
<path d="M791.737 281.781H806.508V303.698H791.737V281.781ZM805.942 282.38H792.246V303.099H805.942V282.38Z" fill="white"/>
<path d="M799.377 262.618H798.811V282.08H799.377V262.618Z" fill="white"/>
</g>
</svg>
